<svg id="Layer_1" data-name="Layer 1" xmlns="http://www.w3.org/2000/svg" viewBox="0 0 209.21 55.87"><defs><style>.cls-1{fill:#10623e;}.cls-2{fill:#df2305;}.cls-3{fill:#fcfcfc;}.cls-4{fill:#fff;}.cls-5{fill:none;}.cls-6{fill:#f9f9f9;}</style></defs><path class="cls-1" d="M22.19,27.9l0,.31c0,.3-.1.78-.4.95a.58.58,0,0,1-.82-.41,1.92,1.92,0,0,1,0-.89,18.22,18.22,0,0,0,.1-4.55,2,2,0,0,0-.2-.91,1.88,1.88,0,0,0-.59-.53C19,21,17.58,20.38,16.36,19.43a5.23,5.23,0,0,1-2.25-3.88,6.07,6.07,0,0,0,1.78,1.79c1.2.78,2.68,1.14,3.74,2.11.22.21.61.42.76.16a.44.44,0,0,0,0-.32l-.34-1.95a3.58,3.58,0,0,0-.39-1.25A3.69,3.69,0,0,0,18,14.93a11.18,11.18,0,0,1-3.15-2A5.64,5.64,0,0,1,13.13,9.6a11.07,11.07,0,0,0,3,2.33,12.74,12.74,0,0,1,3.58,2.17l.36-1.94a6.11,6.11,0,0,0,.16-2,4.38,4.38,0,0,1-.11-.94c.07-.94,1.08-1.5,1.5-2.34.26-.54.27-1.16.5-1.71a4.48,4.48,0,0,1,1.27-1.51,23.63,23.63,0,0,0-.28,5.11,2.34,2.34,0,0,1-.4,1.86,7,7,0,0,1-.78.52,2.88,2.88,0,0,0-.85,2A7.91,7.91,0,0,0,21.27,17c1.68-.82,2.4-2.85,3.86-4a8.45,8.45,0,0,1,2.71-1.28c.21-.07.51-.09.57.12a16.2,16.2,0,0,0-3.5,3.84c-.59.91-1.21,2-2.27,2.21-.42.09-1,.11-1.11.51a.88.88,0,0,0,0,.51c.23,1.26.46,2.51.71,3.76,1.57-.78,2.38-2.55,3.8-3.56A7.09,7.09,0,0,1,29.71,18a21.58,21.58,0,0,0-4.19,4.24A3.25,3.25,0,0,1,24,23.52c-.47.14-1,.06-1.4.39a1.66,1.66,0,0,0-.34,1.3A21.92,21.92,0,0,1,22.19,27.9Z" transform="translate(-3.15 -3.62)"/><path class="cls-2" d="M41.2,44a2.24,2.24,0,0,0-.11-.31,2.22,2.22,0,0,0-.45-.63l-.1-.07-.09-.07a.2.2,0,0,1,0-.17s.05-.06.11-.13a.18.18,0,0,0,.05-.07l0-.05.14-.24A2.24,2.24,0,0,0,40.9,42,2,2,0,0,0,41,41a2,2,0,0,0-.43-.94l-.17-.18a2,2,0,0,0-1.22-.55,2,2,0,0,0-1,.15,1,1,0,0,0-.53.44,1.08,1.08,0,0,0-.13.47.15.15,0,0,1,0,.07.9.9,0,0,0,.22.48s.12.12.2.11.17-.12.2-.26a1.22,1.22,0,0,1,.46-.47,1.17,1.17,0,0,1,.72-.16,1.28,1.28,0,0,1,.47.21.85.85,0,0,1,.25.25,1.21,1.21,0,0,1,.17,1,1.94,1.94,0,0,1-.74.75,2,2,0,0,1-1.58.09,3.76,3.76,0,0,1-1.45-.91,3.68,3.68,0,0,1-.91-1.5A6.7,6.7,0,0,1,35,38a8.57,8.57,0,0,1,.61-4.78c.7-1.47,1.94-2.63,2.73-4.05a.14.14,0,0,0-.13-.21,10.93,10.93,0,0,0-7.4,2.79.15.15,0,0,1-.23-.07,13.46,13.46,0,0,1,1.94-11.3,3.35,3.35,0,0,0,.64-1.15,1.05,1.05,0,0,0-.35-1.09.14.14,0,0,0-.16,0,56.33,56.33,0,0,0-9.42,8.84h0l-1,1.12-.41.45a.13.13,0,0,1-.2,0L21,27.88l-.25-.27h0l-.94-1h0a55.19,55.19,0,0,0-6.65-5.95h0L10.05,18.1s-.41-.12-.53.67,1,2,1,2l1,1.62h0a16.37,16.37,0,0,1,2,7.61,3.1,3.1,0,0,1-.55,1.92.15.15,0,0,1-.21,0,9.33,9.33,0,0,0-2.81-1.85l-.76-.46a6.68,6.68,0,0,0-1.47-.44,8.82,8.82,0,0,0-1.55-.24c-.63,0-1,0-1,0A.14.14,0,0,0,5,29.1s.52.86.6.94.71,1,.9,1.21,1.2,1.55,1.69,2.2a13.26,13.26,0,0,1,.93,3.6A6.34,6.34,0,0,1,8.7,40.5,3.52,3.52,0,0,1,6,42.57a1.67,1.67,0,0,1-1.9-1.15,1.17,1.17,0,0,1,.94-1.28,1.18,1.18,0,0,1,1.25.8.14.14,0,0,0,.2.08.83.83,0,0,0,.31-1,1.3,1.3,0,0,0-1-.73A2,2,0,0,0,4,42.74.14.14,0,0,1,4,43a2,2,0,0,0-.52,2.61,2,2,0,0,0,2.74.5c.5-.38.72-1.24.29-1.62a.14.14,0,0,0-.22,0c-.35.68-1,1.41-1.66,1.12s-.55-1.44,0-1.92A2.46,2.46,0,0,1,7.82,44a3.79,3.79,0,0,1,.83,3.3,8.76,8.76,0,0,1-1.46,3.18,5.8,5.8,0,0,0-.78,1.42C6,53.35,6.89,54.84,8,55.83a10.83,10.83,0,0,0,2.79,1.8,20.78,20.78,0,0,0,5.81,1.48,40,40,0,0,0,6.65.35,36.44,36.44,0,0,0,7.19-1,12.92,12.92,0,0,0,6.64-3.38,4,4,0,0,0,1.24-3.28A6.36,6.36,0,0,0,37,49.39a7.52,7.52,0,0,1-1.35-2.84,3.87,3.87,0,0,1,.13-1,3,3,0,0,1,.94-1.63,2.73,2.73,0,0,1,1-.54,2.42,2.42,0,0,1,.81-.11,2.22,2.22,0,0,1,1,.25,1.55,1.55,0,0,1,.55.47,1.59,1.59,0,0,1,.14.26,1.5,1.5,0,0,1,.06.94,1,1,0,0,1-.66.5,1,1,0,0,1-.66-.22,1.92,1.92,0,0,1-.32-.3,2.2,2.2,0,0,1-.35-.53.28.28,0,0,0-.14-.18s-.05,0-.09,0-.25.29-.26.35a.51.51,0,0,0,0,.2,1.39,1.39,0,0,0,.35.94,1.22,1.22,0,0,0,.48.34,2.07,2.07,0,0,0,2-.25,1.82,1.82,0,0,0,.59-.91A2,2,0,0,0,41.2,44ZM8.94,33h0a.25.25,0,0,1,0-.07c-.12-.2-.24-.4-.37-.59s-.25-.35-.38-.51L8,31.62c-.06-.06-.11-.13-.16-.19h0l0,0,0,0,0-.06,0,0a.21.21,0,0,0,0-.06h0A4,4,0,0,0,7,30.54l-.48-.39a0,0,0,0,1,0-.06,18,18,0,0,1,2.56.81l.35.17.16.06.58.26.51.27a6.49,6.49,0,0,1,.55.36c.21.14.41.3.61.46l.33.29a1.65,1.65,0,0,1,.41.54.58.58,0,0,1,0,.18.87.87,0,0,1,0,.36,1.6,1.6,0,0,1,0,.21.88.88,0,0,1-.05.15h0a10,10,0,0,1-2.07,3.94.57.57,0,0,1-.21.19h-.06s-.05-.05-.07-.09A.9.9,0,0,1,10,38c0-.07,0-.14,0-.22s0-.26,0-.38,0-.38,0-.44,0-.17,0-.26l0-.35c0-.22-.06-.44-.1-.65s-.07-.35-.11-.52-.1-.38-.16-.56-.09-.27-.14-.4l-.1-.27-.16-.36,0-.06C9.13,33.34,9,33.15,8.94,33Zm27,9.91c0,.25-.54.65-.71.83-.7.76-.61,2.16-.38,3.17a9.9,9.9,0,0,0,1,2.31A3.19,3.19,0,0,1,36,50.36a.47.47,0,0,1-.16.1c-.05-.06,0-.58-.11-.53a40.77,40.77,0,0,1-6.66,2.16,41,41,0,0,1-7,1,4.32,4.32,0,0,1-1.48,0,9.43,9.43,0,0,0-1.68-.23c-1.18-.16-2.36-.37-3.52-.63a43.12,43.12,0,0,1-6-1.76.83.83,0,0,1-.29-.16c-.21-.21-.13-.55,0-.82A12.54,12.54,0,0,0,10,46.08a3.73,3.73,0,0,0-.84-2.67.71.71,0,0,1,0-.92,40.6,40.6,0,0,0,4.41-6.18,15.47,15.47,0,0,0,1.67-3.68c.82-3,.17-6.18-.85-9.1,2.28,1.5,4,3.72,5.86,5.69a2.57,2.57,0,0,0,1.72,1,2.67,2.67,0,0,0,1.74-1l3-3.15h0c.6-.78,2.53-2.64,2.53-2.64a16.78,16.78,0,0,1-.72,3,19.58,19.58,0,0,0,6.8,15.43C35.6,42.11,36,42.51,35.94,42.88Z" transform="translate(-3.15 -3.62)"/><path class="cls-2" d="M8,31.62c-.06-.06-.11-.13-.16-.19h0l0,0,0,0,0-.06,0,0a.21.21,0,0,0,0-.06h0a1,1,0,0,1-.1-.21,1.82,1.82,0,0,0,.27.35A.5.5,0,0,1,8,31.62Z" transform="translate(-3.15 -3.62)"/><path class="cls-2" d="M7.88,30.66a.16.16,0,0,1-.09,0c.28.05.56.11.83.18Z" transform="translate(-3.15 -3.62)"/><path class="cls-2" d="M8.86,32.79a.49.49,0,0,0,0,.11c-.12-.2-.24-.4-.37-.59a1,1,0,0,0,.14.15A.49.49,0,0,1,8.86,32.79Z" transform="translate(-3.15 -3.62)"/><path class="cls-2" d="M9,33.05a1.29,1.29,0,0,1,.23.47c-.09-.18-.18-.37-.28-.55A.35.35,0,0,0,9,33.05Z" transform="translate(-3.15 -3.62)"/><path class="cls-2" d="M9.41,33.94a1.25,1.25,0,0,1,.1.27Z" transform="translate(-3.15 -3.62)"/><path class="cls-2" d="M9.43,31.07l.16.06a3.68,3.68,0,0,1-.66-.23Z" transform="translate(-3.15 -3.62)"/><path class="cls-2" d="M9.81,35.12v.05c-.05-.19-.1-.38-.16-.56A.93.93,0,0,1,9.81,35.12Z" transform="translate(-3.15 -3.62)"/><path class="cls-2" d="M10,37.76h0c0-.12,0-.26,0-.38h0A.3.3,0,0,1,10,37.76Z" transform="translate(-3.15 -3.62)"/><path class="cls-2" d="M10.1,38.26h0A.9.9,0,0,1,10,38l.06.06C10.2,38.12,10.19,38.13,10.1,38.26Z" transform="translate(-3.15 -3.62)"/><path class="cls-2" d="M10.05,36.69l0-.35.09.07a.14.14,0,0,1,0,.15l-.07.12Z" transform="translate(-3.15 -3.62)"/><path class="cls-2" d="M10.44,38.15a.57.57,0,0,1-.21.19A.77.77,0,0,1,10.44,38.15Z" transform="translate(-3.15 -3.62)"/><path class="cls-2" d="M11,37.28l0,0c-.08.14-.25.45-.42.71a2.4,2.4,0,0,0,.11-.23A1,1,0,0,1,11,37.28Z" transform="translate(-3.15 -3.62)"/><path class="cls-2" d="M11.23,32,11.12,32l-.44-.29A6.49,6.49,0,0,1,11.23,32Z" transform="translate(-3.15 -3.62)"/><path class="cls-2" d="M11.27,36.77a1.28,1.28,0,0,0-.11.2v-.06A.15.15,0,0,1,11.27,36.77Z" transform="translate(-3.15 -3.62)"/><path class="cls-2" d="M12.08,35.12a1.19,1.19,0,0,1,.13-.25c-.15.33-.3.66-.47,1h0a1.08,1.08,0,0,1,.29-.63A.31.31,0,0,0,12.08,35.12Z" transform="translate(-3.15 -3.62)"/><path class="cls-2" d="M12.56,34.06c0-.07,0-.14,0-.21A1.6,1.6,0,0,1,12.56,34.06Z" transform="translate(-3.15 -3.62)"/><path class="cls-2" d="M12.62,33.49c0-.1-.09-.21-.13-.31a.4.4,0,0,0-.15-.22c-.18-.15-.33-.32-.5-.48l.33.29a1.65,1.65,0,0,1,.41.54A.58.58,0,0,1,12.62,33.49Z" transform="translate(-3.15 -3.62)"/><path class="cls-2" d="M36,50.36a.47.47,0,0,1-.16.1c-.05-.06,0-.58-.11-.53a40.77,40.77,0,0,1-6.66,2.16,41,41,0,0,1-7,1,4.32,4.32,0,0,1-1.48,0,9.43,9.43,0,0,0-1.68-.23c-1.18-.16-2.36-.37-3.52-.63a43.12,43.12,0,0,1-6-1.76.83.83,0,0,1-.29-.16c-.21-.21-.13-.55,0-.82A12.54,12.54,0,0,0,10,46.08a3.73,3.73,0,0,0-.84-2.67.71.71,0,0,1,0-.92,40.6,40.6,0,0,0,4.41-6.18,15.47,15.47,0,0,0,1.67-3.68c.82-3,.17-6.18-.85-9.1,2.28,1.5,4,3.72,5.86,5.69a2.57,2.57,0,0,0,1.72,1,2.67,2.67,0,0,0,1.74-1l3-3.15h0c.6-.78,2.53-2.64,2.53-2.64a16.78,16.78,0,0,1-.72,3,19.58,19.58,0,0,0,6.8,15.43c.29.24.71.64.63,1s-.54.65-.71.83c-.7.76-.61,2.16-.38,3.17a9.9,9.9,0,0,0,1,2.31A3.19,3.19,0,0,1,36,50.36Z" transform="translate(-3.15 -3.62)"/><path class="cls-2" d="M8,31.62c-.06-.06-.11-.13-.16-.19h0l0,0,0,0,0-.06,0,0a.21.21,0,0,0,0-.06h0a1,1,0,0,1-.1-.21,1.82,1.82,0,0,0,.27.35A.5.5,0,0,1,8,31.62Z" transform="translate(-3.15 -3.62)"/><path class="cls-2" d="M7.88,30.66a.16.16,0,0,1-.09,0c.28.05.56.11.83.18Z" transform="translate(-3.15 -3.62)"/><path class="cls-2" d="M8.86,32.79a.49.49,0,0,0,0,.11c-.12-.2-.24-.4-.37-.59a1,1,0,0,0,.14.15A.49.49,0,0,1,8.86,32.79Z" transform="translate(-3.15 -3.62)"/><path class="cls-2" d="M9,33.05a1.29,1.29,0,0,1,.23.47c-.09-.18-.18-.37-.28-.55A.35.35,0,0,0,9,33.05Z" transform="translate(-3.15 -3.62)"/><path class="cls-2" d="M9.59,31.13a3.68,3.68,0,0,1-.66-.23l.5.17Z" transform="translate(-3.15 -3.62)"/><path class="cls-2" d="M99.23,34.65h-2a.31.31,0,0,0-.33.32c0,.27,0,.55,0,.82V46.39c-.25.17-.37,0-.49-.09-.61-.39-1.19-.82-1.81-1.2a.88.88,0,0,1-.43-.85c0-.71,0-1.42,0-2.12-.39-.05-.57.19-.8.31a3.68,3.68,0,0,1-3.74,0,7.79,7.79,0,0,1-1.75-1.26,2.64,2.64,0,0,1-.9-2.1c0-1.14,0-2.27,0-3.41,0-.24,0-.48,0-.72s-.09-.28-.24-.28q-1.29,0-2.58,0a.24.24,0,0,0-.25.26c0,.28,0,.55,0,.83V46.55c-.24.13-.37,0-.51-.09C82.66,46,82,45.6,81.4,45.2a.63.63,0,0,1-.31-.6c0-.86,0-1.72,0-2.58,0-.35-.11-.44-.43-.37s-.73.17-1.1.27A2.92,2.92,0,0,1,77,41.46c-.34-.23-.63-.65-1-.64s-.58.53-.9.77l-1.19.93a9.46,9.46,0,0,0,1,1c.32.36.66.7,1,1l.93,1,1,1.08-1.17,1a3.4,3.4,0,0,1-.33-.29c-1.45-1.57-2.87-3.16-4.16-4.86a12.91,12.91,0,0,1-1.27-2,2.42,2.42,0,0,1-.32-1.08,1,1,0,0,1,1.4-1A11.3,11.3,0,0,1,73,39a.2.2,0,0,0,.3-.16,1.53,1.53,0,0,0,0-.3c0-1.1,0-2.2,0-3.3,0-.48-.08-.56-.52-.56H68.29c-.39,0-.46.08-.48.49s0,.55,0,.83V46.36c-.2.18-.34.06-.48,0-.6-.4-1.19-.81-1.8-1.2a.88.88,0,0,1-.46-.84c0-.59,0-1.17,0-1.76a2.44,2.44,0,0,0,0-.39c-.26-.1-.41.08-.57.18a3.82,3.82,0,0,1-4.28-.06,8.51,8.51,0,0,1-1.39-1.06,2.66,2.66,0,0,1-.92-2.1c0-1.13,0-2.27,0-3.4,0-.24,0-.49,0-.73a.3.3,0,0,0-.33-.31c-.89,0-1.79,0-2.68,0-.23,0-.47-.08-.69.07s.11.38.22.54c.35.51.75,1,1.06,1.52A1.24,1.24,0,0,1,55,38.64a8.46,8.46,0,0,1-.77.44c0,.26.2.29.33.38A6.43,6.43,0,0,1,56,40.63a2.44,2.44,0,0,1-.09,3.59,4.59,4.59,0,0,1-2.83,1.34,5.11,5.11,0,0,1-3.34-.81,8.19,8.19,0,0,1-1.52-1.23,19.52,19.52,0,0,1-2-2.59c-.2-.3-.19-.36.1-.59s.27-.21.42-.31a.2.2,0,0,1,.27,0c.13.16.25.33.37.5a10,10,0,0,0,1.42,1.63A4.82,4.82,0,0,0,51,43.41a2.71,2.71,0,0,0,2.49-.68,1.55,1.55,0,0,0-.06-2.49,1.33,1.33,0,0,0-1.5-.36,7.91,7.91,0,0,1-1.4.3,1.4,1.4,0,0,1-1.39-.5,4.86,4.86,0,0,1-.79-1.07c-.22-.42-.08-.76.39-.84A7.37,7.37,0,0,1,50,37.7a4.66,4.66,0,0,0,1.62-.2,3.32,3.32,0,0,0,1.34-.76A.77.77,0,0,0,53,35.56c-.08-.11-.19-.2-.27-.31a1.56,1.56,0,0,0-1.42-.62c-2,0-4.06,0-6.09,0a1.05,1.05,0,0,1-1.07-.6c-.25-.47-.61-.88-.89-1.47.42,0,.71,0,1,0h50c.9,0,1.11.09.52-.88-.35-.59-.61-1.23-.9-1.85a4.59,4.59,0,0,1-.33-1.51,2.59,2.59,0,0,1,1.15-2.4,2.34,2.34,0,0,1,2.54-.16,3.69,3.69,0,0,1,2,2.92.38.38,0,0,1-.28.47,4.6,4.6,0,0,1-.5.13.34.34,0,0,1-.42-.2c-.12-.25-.23-.5-.37-.74a1.09,1.09,0,0,0-1.21-.57,1.17,1.17,0,0,0-.94,1,2.17,2.17,0,0,0,0,.72,11,11,0,0,0,.58,2.6.62.62,0,0,0,.68.5,2.41,2.41,0,0,1,1.11.07c.37.17.47.65.69,1S99,34.2,99.23,34.65Zm-9.62,2.89h0V39.7c0,.24,0,.48.05.72a.5.5,0,0,0,.39.42,2.09,2.09,0,0,0,1.31-.12A9.8,9.8,0,0,0,93.91,39a.56.56,0,0,0,.19-.45c0-1.17,0-2.34,0-3.5,0-.33-.09-.41-.44-.41H90.05c-.35,0-.44.09-.44.42C89.6,35.89,89.61,36.72,89.61,37.54Zm-29,.14h0v2c0,.21,0,.41,0,.62,0,.46.15.58.63.63a2.38,2.38,0,0,0,1.2-.22,10,10,0,0,0,2.37-1.6.68.68,0,0,0,.26-.53c0-1.16,0-2.33,0-3.49,0-.24-.11-.39-.36-.39H61c-.31,0-.39.09-.39.47C60.6,36,60.61,36.83,60.61,37.68Zm18.1-3H76.56c-.4,0-.47.07-.47.49,0,1.23,0,2.46,0,3.7,0,.42,0,.47.43.57a6.18,6.18,0,0,0,4.36-.6.37.37,0,0,0,.2-.34V35c0-.26-.19-.33-.42-.33Z" transform="translate(-3.15 -3.62)"/><path class="cls-3" d="M76.62,48l-.16-.14-.13-.1c-.08-.07-.16-.13-.24-.21-1.36-1.49-2.82-3.11-4.16-4.88a13.39,13.39,0,0,1-1.31-2,2.8,2.8,0,0,1-.34-1.19,1.37,1.37,0,0,1,.56-1.14A1.27,1.27,0,0,1,72,38.14a4.75,4.75,0,0,1,.71.37l.34.19a1.15,1.15,0,0,0,0-.19v-.67c0-.86,0-1.75,0-2.63a1.73,1.73,0,0,0,0-.28.79.79,0,0,0-.24,0H68.1a1,1,0,0,0,0,.23c0,.2,0,.4,0,.59V46.48l-.09.08a.55.55,0,0,1-.76,0l0,0c-.23-.14-.45-.3-.68-.45s-.74-.5-1.12-.74a1.13,1.13,0,0,1-.58-1.08c0-.45,0-.92,0-1.37,0-.12,0-.24,0-.36a.66.66,0,0,0,0-.14l-.11.07-.11.07A4.06,4.06,0,0,1,60,42.48a9,9,0,0,1-1.43-1.09,2.93,2.93,0,0,1-1-2.3c0-.81,0-1.63,0-2.43V35.57a5.24,5.24,0,0,0,0-.57c0-.08,0-.08-.07-.08H54.41l.07.09.11.13c.12.19.26.37.4.55s.47.64.67,1a1.51,1.51,0,0,1-.52,2.22c-.18.12-.37.22-.55.32l.1.06a6.22,6.22,0,0,1,1.48,1.22,2.7,2.7,0,0,1-.09,3.94,4.78,4.78,0,0,1-3,1.41A5.37,5.37,0,0,1,49.58,45,8.55,8.55,0,0,1,48,43.7a19.31,19.31,0,0,1-2.07-2.63c-.27-.4-.24-.61.16-.93a3.88,3.88,0,0,1,.44-.33.45.45,0,0,1,.61.1c.11.13.2.26.29.39l.09.12A9.79,9.79,0,0,0,48.91,42,4.47,4.47,0,0,0,51,43.15a2.45,2.45,0,0,0,2.26-.61,1.36,1.36,0,0,0,.52-1,1.44,1.44,0,0,0-.57-1.05c-.42-.36-.75-.52-1.23-.32a4,4,0,0,1-1,.24l-.43.07a1.66,1.66,0,0,1-1.63-.57,5.36,5.36,0,0,1-.84-1.13.89.89,0,0,1-.05-.79.8.8,0,0,1,.64-.43A8.1,8.1,0,0,1,50,37.44a4.48,4.48,0,0,0,1.54-.19,3,3,0,0,0,1.23-.69c.31-.31.32-.5.06-.84l-.11-.12a1.54,1.54,0,0,1-.17-.19,1.3,1.3,0,0,0-1.21-.52c-1,0-2.13,0-3.16,0h-3a1.31,1.31,0,0,1-1.27-.74c-.1-.19-.22-.37-.34-.56a6.72,6.72,0,0,1-.55-.93l-.17-.36h.39l.39,0,.63,0h50.6a5.25,5.25,0,0,0-.27-.49,16.29,16.29,0,0,1-.75-1.51l-.16-.37a4.45,4.45,0,0,1-.36-1.59,2.87,2.87,0,0,1,1.25-2.63,2.63,2.63,0,0,1,2.82-.18,3.9,3.9,0,0,1,2.17,3.11.63.63,0,0,1-.46.76l-.51.14a.63.63,0,0,1-.72-.34l-.12-.26a4.93,4.93,0,0,0-.23-.46.82.82,0,0,0-.94-.45.89.89,0,0,0-.74.78,2.1,2.1,0,0,0,0,.63A10.38,10.38,0,0,0,96.4,32c.09.27.19.34.41.33H97a2.2,2.2,0,0,1,1,.1,1.46,1.46,0,0,1,.64.79,2.25,2.25,0,0,0,.16.31c.12.19.23.39.37.64s.15.25.23.41l.22.39H97.18s-.07,0-.07.08,0,.44,0,.67V46.52L97,46.6a.56.56,0,0,1-.74-.05l0,0L95.44,46c-.34-.23-.69-.47-1-.69a1.11,1.11,0,0,1-.56-1.07V44c0-.53,0-1.07,0-1.6a.93.93,0,0,0-.23.13,1.37,1.37,0,0,1-.2.13,3.94,3.94,0,0,1-4,0,8.21,8.21,0,0,1-1.81-1.3,2.91,2.91,0,0,1-1-2.3c0-.81,0-1.63,0-2.43v-1c0-.21,0-.46,0-.71a0,0,0,0,0,0,0H84.08v0q0,.36,0,.81v11l-.14.08a.67.67,0,0,1-.74-.09l0,0-.55-.37c-.43-.29-.88-.6-1.33-.89a.86.86,0,0,1-.43-.81c0-.94,0-1.79,0-2.58a.38.38,0,0,0,0-.13h-.1l-1.09.27a3.15,3.15,0,0,1-2.76-.5,3.92,3.92,0,0,1-.33-.27c-.19-.17-.37-.33-.54-.32s-.23.13-.39.33a2.22,2.22,0,0,1-.36.39l-.8.62-.19.15c.14.17.29.32.45.48l.33.34c.22.24.45.48.68.71l.31.33.1.1.83.87c.22.23.44.47.68.71l.54.57Zm-5.09-9.39a.7.7,0,0,0-.4.12.88.88,0,0,0-.33.71,2.19,2.19,0,0,0,.29,1,13.22,13.22,0,0,0,1.25,2c1.33,1.76,2.78,3.37,4.14,4.85a.87.87,0,0,0,.14.12l.79-.64-.16-.17-.68-.71-.82-.87-.1-.1-.31-.32c-.23-.24-.47-.48-.69-.73l-.32-.32a5.31,5.31,0,0,1-.65-.75l-.14-.2.19-.15.39-.31.8-.62a1.62,1.62,0,0,0,.27-.3,1.06,1.06,0,0,1,.79-.53,1.37,1.37,0,0,1,.9.45,1.89,1.89,0,0,0,.28.23,2.66,2.66,0,0,0,2.32.43l1.12-.27a.59.59,0,0,1,.54.07.65.65,0,0,1,.2.55c0,.79,0,1.64,0,2.58a.4.4,0,0,0,.19.38l1.34.89.55.37,0,0,.06,0V35.76q0-.46,0-.84a.51.51,0,0,1,.51-.51h2.58a.52.52,0,0,1,.5.53c0,.26,0,.51,0,.73v1c0,.8,0,1.63,0,2.44A2.35,2.35,0,0,0,88,41a7.62,7.62,0,0,0,1.69,1.22,3.41,3.41,0,0,0,3.49,0l.15-.09a1.07,1.07,0,0,1,.81-.25l.21,0,0,.21c0,.64,0,1.28,0,1.91v.23a.63.63,0,0,0,.31.63l1.06.7.75.5.09.07h0V35.67c0-.23,0-.47,0-.71a.57.57,0,0,1,.58-.56h1.61v0c-.14-.24-.24-.43-.36-.62s-.13-.24-.19-.36a1.1,1.1,0,0,0-.39-.54,1.85,1.85,0,0,0-.8-.05h-.19a.88.88,0,0,1-.93-.67,10.88,10.88,0,0,1-.6-2.67,2.08,2.08,0,0,1,0-.8,1.39,1.39,0,0,1,1.14-1.17,1.33,1.33,0,0,1,1.48.69,4.09,4.09,0,0,1,.26.51l.12.24c0,.07.06.08.13.07a3.61,3.61,0,0,0,.48-.13c.08,0,.12,0,.1-.18A3.45,3.45,0,0,0,97.15,26a2.09,2.09,0,0,0-2.27.14,2.35,2.35,0,0,0-1,2.18,4,4,0,0,0,.31,1.41l.16.36A13.25,13.25,0,0,0,95,31.52c.29.49.46.8.31,1.05s-.42.24-.86.23H44.26l-.58,0c.1.18.21.35.32.51s.26.39.37.6a.8.8,0,0,0,.84.46h2.93c1,0,2.1,0,3.15,0a1.81,1.81,0,0,1,1.64.73l.12.14.15.16a1,1,0,0,1-.1,1.53,3.58,3.58,0,0,1-1.43.81A5,5,0,0,1,50,38a7.84,7.84,0,0,0-1.18.06.43.43,0,0,0-.27.15.41.41,0,0,0,.06.32,4.67,4.67,0,0,0,.76,1,1.12,1.12,0,0,0,1.14.41l.46-.07a3.87,3.87,0,0,0,.89-.21,1.57,1.57,0,0,1,1.77.4,1.81,1.81,0,0,1,.06,2.89,3,3,0,0,1-2.72.73,5.06,5.06,0,0,1-2.36-1.26,10.4,10.4,0,0,1-1.45-1.68L47,40.6c-.08-.12-.16-.22-.24-.32a3.49,3.49,0,0,0-.35.26.52.52,0,0,0-.13.12l.07.12a19.06,19.06,0,0,0,2,2.56,7.88,7.88,0,0,0,1.47,1.19A4.93,4.93,0,0,0,53,45.3,4.33,4.33,0,0,0,55.71,44a2.17,2.17,0,0,0,.07-3.23,6,6,0,0,0-1.37-1.13l-.06,0a.57.57,0,0,1-.39-.57v-.14l.13-.07a1.83,1.83,0,0,1,.24-.13c.17-.1.35-.19.51-.3a1,1,0,0,0,.36-1.52c-.19-.32-.41-.62-.64-.94s-.28-.37-.41-.57l-.07-.08a.64.64,0,0,1-.18-.69l0-.08.07,0a.93.93,0,0,1,.67-.12h2.84a.57.57,0,0,1,.59.55c0,.21,0,.42,0,.62v1.09c0,.8,0,1.63,0,2.45A2.39,2.39,0,0,0,59,41a8,8,0,0,0,1.36,1,3.53,3.53,0,0,0,4,.07l.08-.06a.73.73,0,0,1,.73-.14l.14.06,0,.15s0,.07,0,.11a2.72,2.72,0,0,1,0,.31c0,.12,0,.24,0,.36,0,.46,0,.94,0,1.41a.62.62,0,0,0,.34.61l1.14.75.67.45,0,0,0,0V35.74c0-.2,0-.4,0-.61,0-.48.14-.74.74-.74h4.54c.59,0,.78.19.78.82,0,.87,0,1.77,0,2.63v.67a2,2,0,0,1,0,.36.49.49,0,0,1-.26.34.48.48,0,0,1-.42,0L72.48,39a4.25,4.25,0,0,0-.63-.33A1,1,0,0,0,71.53,38.57Zm12.54-3.64Zm6.45,6.22a2.48,2.48,0,0,1-.54-.06.73.73,0,0,1-.58-.63,5.18,5.18,0,0,1-.06-.75V37.28h0c0-.15,0-.3,0-.45,0-.58,0-1.17,0-1.76s.21-.68.7-.68h3.61c.49,0,.7.19.7.67,0,.83,0,1.68,0,2.5,0,.33,0,.67,0,1a.8.8,0,0,1-.28.64A10,10,0,0,1,91.45,41,2.38,2.38,0,0,1,90.52,41.15Zm-.66-3.35v.35c0,.51,0,1,0,1.55a4.36,4.36,0,0,0,0,.68.21.21,0,0,0,.2.2,1.74,1.74,0,0,0,1.14-.1,9.18,9.18,0,0,0,2.48-1.67.3.3,0,0,0,.11-.25c0-.33,0-.67,0-1,0-.82,0-1.67,0-2.5a1.38,1.38,0,0,0,0-.14h-4a1.42,1.42,0,0,0,0,.15c0,.59,0,1.19,0,1.76v1Zm-28.4,3.35h-.24c-.62-.07-.83-.29-.87-.87,0-.16,0-.32,0-.47V37.42h0v-.48c0-.6,0-1.22,0-1.83,0-.43.12-.72.65-.72h3.7a.6.6,0,0,1,.63.65v3.49a1,1,0,0,1-.35.73,10.39,10.39,0,0,1-2.44,1.64A2.57,2.57,0,0,1,61.46,41.15Zm-.6-3.21V39.8c0,.15,0,.29,0,.43,0,.32,0,.35.4.39a2.06,2.06,0,0,0,1.06-.2,9.83,9.83,0,0,0,2.31-1.56.4.4,0,0,0,.17-.33v-.78c0-.89,0-1.81,0-2.71,0-.13,0-.13-.1-.13H60.89a.59.59,0,0,0,0,.2c0,.61,0,1.22,0,1.82v1Zm17,1.91a5.08,5.08,0,0,1-1.4-.19c-.52-.13-.63-.28-.63-.82,0-1.19,0-2.43,0-3.7,0-.56.19-.74.72-.75h4.11c.62,0,.68.45.68.59v3.49A.61.61,0,0,1,81,39,7.28,7.28,0,0,1,77.86,39.85Zm-1.49-.76.22.07a5.81,5.81,0,0,0,4.18-.59s0,0,0-.1V35a.15.15,0,0,0,0-.06h0a.32.32,0,0,0-.15,0H76.37a.76.76,0,0,0,0,.22c0,1.27,0,2.51,0,3.69A1.1,1.1,0,0,0,76.37,39.09Z" transform="translate(-3.15 -3.62)"/><path class="cls-2" d="M169.78,46.56c0-.22-.16-.27-.29-.36-.57-.39-1.14-.78-1.71-1.15a.72.72,0,0,1-.36-.69c0-1.06,0-2.13,0-3.2V35.59c0-.17,0-.34,0-.51s-.11-.43-.44-.43h-3a.39.39,0,0,1-.34-.18c-.31-.46-.63-.91-.93-1.37-.09-.13-.24-.25-.16-.51.55-.06,1.13,0,1.7,0h10.4a1.43,1.43,0,0,0-.3-.9,4.34,4.34,0,0,1-.42-2,2.83,2.83,0,0,1,1.59-2.58,5.07,5.07,0,0,1,3.61-.39,7.26,7.26,0,0,1,1.36.46,18.38,18.38,0,0,1,4.88,3l.38.35c.23.24.24.33.07.64-.29.5-.4.5-.78.19a16.29,16.29,0,0,0-2.77-1.77,7.88,7.88,0,0,0-2.64-.82,4.28,4.28,0,0,0-1.13,0,2.53,2.53,0,0,0-2.29,2.39c0,.34,0,.69,0,1s.15.35.39.35h28.78c1.31,0,.95-.16,1.6.88.21.35.41.7.59,1-.15.24-.33.17-.49.18h-1.44a.32.32,0,0,0-.33.32c0,.17,0,.34,0,.51V45.9c0,.14,0,.28,0,.41a.36.36,0,0,0,.29.38,5.33,5.33,0,0,1,1.91,1.18l4.12,3.44a1.13,1.13,0,0,1,.46.53c-.91,1-.74.85-1.6,0-.59-.57-1.2-1.13-1.8-1.7A4.08,4.08,0,0,0,205.1,49a2.69,2.69,0,0,1-1.22.06c-.41-.14-.55-.66-.8-1a5,5,0,0,1-.7-1.39c.68-.28,1.39,0,2-.2,0-.24-.14-.31-.27-.4-.4-.28-.79-.56-1.2-.8a.7.7,0,0,1-.36-.68c0-.79,0-1.58,0-2.37,0-.47-.06-.53-.54-.53h-3.61c-.39,0-.46.08-.48.49s0,.69,0,1a.51.51,0,0,1-.71.5,2.82,2.82,0,0,1-.74-.36,11.17,11.17,0,0,1-2.13-1.93,2.11,2.11,0,0,1-.48-.91.69.69,0,0,1,.58-.9,3,3,0,0,1,.52,0,.26.26,0,0,0,.25-.27c0-.3,0-.61,0-.92,0-1.07,0-2.13,0-3.2,0-.43-.08-.5-.47-.5h-3.3c-.33,0-.41.09-.43.43s0,.55,0,.82v9.8c0,.24,0,.48,0,.72a.21.21,0,0,1-.31.15l-2.14-1.42a.64.64,0,0,1-.26-.63c0-.79,0-1.58,0-2.37,0-.4-.09-.49-.48-.49h-3.71c-.34,0-.41.09-.42.44s0,.69,0,1a.54.54,0,0,1-.78.54,3,3,0,0,1-.73-.38,11.71,11.71,0,0,1-2.06-1.86,2.26,2.26,0,0,1-.52-1,.68.68,0,0,1,.54-.85,2.15,2.15,0,0,1,.51,0c.27,0,.35-.18.35-.41,0-1.37,0-2.75,0-4.12a.33.33,0,0,0-.38-.37h-3.1c-.33,0-.41.09-.42.44s0,.55,0,.82v9.8c0,.2,0,.41,0,.62s-.17.31-.33.21a4,4,0,0,1-.44-.27l-1.65-1.05a.57.57,0,0,1-.28-.51c0-.24,0-.48,0-.72V35.84c0-.24,0-.48,0-.72,0-.41-.08-.47-.51-.47h-3.19c-.36,0-.44.08-.46.4s0,.55,0,.83v9.69c0,.24,0,.49,0,.73s-.24.19-.39.24ZM183.66,37h0v1.54c0,1-.07,1,1,1,.55,0,1.1,0,1.65,0a9.31,9.31,0,0,0,1.83-.06,5,5,0,0,0,.13-1.92c0-.78,0-1.57,0-2.36,0-.52,0-.56-.61-.56h-3.59c-.33,0-.42.1-.42.44C183.66,35.74,183.66,36.39,183.66,37Zm18.92.12h0V35.41c0-.75,0-.76-.72-.77h-3.5c-.32,0-.41.1-.42.44s0,.82,0,1.23c0,.86,0,1.72,0,2.57,0,.63,0,.65.61.66s1,0,1.44,0c.72,0,1.44,0,2.16,0,.33,0,.42-.1.42-.44C202.58,38.46,202.58,37.81,202.58,37.16Z" transform="translate(-3.15 -3.62)"/><path class="cls-3" d="M211.27,52.82c-.24,0-.4-.17-.64-.42s-.2-.21-.33-.33l-1-.92-.83-.78a3.8,3.8,0,0,0-3.36-1.11l-.22,0a2.36,2.36,0,0,1-1.12,0,1.5,1.5,0,0,1-.76-.83c-.06-.11-.11-.22-.17-.31a5.12,5.12,0,0,1-.74-1.46l-.07-.22.22-.09a2.93,2.93,0,0,1,1.23-.15H204l-.1-.06c-.35-.25-.71-.51-1.08-.73a.93.93,0,0,1-.49-.9c0-.77,0-1.57,0-2.37a.83.83,0,0,0,0-.25.87.87,0,0,0-.26,0c-1.17,0-2.38,0-3.61,0h-.19a1,1,0,0,0,0,.23v.4c0,.21,0,.43,0,.65a.8.8,0,0,1-.34.64.79.79,0,0,1-.71.07,2.88,2.88,0,0,1-.81-.39,11.44,11.44,0,0,1-2.18-2,2.28,2.28,0,0,1-.53-1,1,1,0,0,1,.11-.81,1,1,0,0,1,.67-.41l.38,0h.18v0c0-.28,0-.58,0-.91v-3.2c0-.14,0-.2,0-.23H191.3s0,.06,0,.17,0,.41,0,.61v10c0,.25,0,.5,0,.73a.48.48,0,0,1-.25.38.47.47,0,0,1-.46,0l-1.05-.69-1.1-.73a.93.93,0,0,1-.37-.85V44c0-.59,0-1.2,0-1.81a1,1,0,0,0,0-.21.54.54,0,0,0-.2,0c-1.23,0-2.48,0-3.71,0H184a.48.48,0,0,0,0,.18c0,.15,0,.29,0,.44s0,.4,0,.6a.79.79,0,0,1-1.12.76,3.33,3.33,0,0,1-.8-.4,12.48,12.48,0,0,1-2.1-1.91,2.53,2.53,0,0,1-.59-1.1,1,1,0,0,1,.12-.75,1,1,0,0,1,.62-.42,2.46,2.46,0,0,1,.54,0h.1a.29.29,0,0,0,0-.14c0-1.66,0-2.94,0-4.12,0-.09,0-.11-.12-.11h-3.24a.48.48,0,0,0,0,.18c0,.2,0,.41,0,.61V45.8c0,.18,0,.36,0,.54a.5.5,0,0,1-.25.44.47.47,0,0,1-.47,0l-.4-.24,0,0-.54-.34c-.36-.24-.73-.48-1.11-.71a.81.81,0,0,1-.4-.74c0-.15,0-.31,0-.46V35.13c0-.12,0-.18,0-.21h-3.42a.48.48,0,0,0-.18,0s0,0,0,.14,0,.41,0,.62v10c0,.2,0,.4,0,.61a.48.48,0,0,1-.38.43l0,.34-.73-.64.08,0h0c-.46-.32-1.08-.74-1.7-1.14a1,1,0,0,1-.48-.91c0-.76,0-1.53,0-2.28V35.5c0-.14,0-.27,0-.4s0-.17,0-.17,0,0-.15,0h-3a.67.67,0,0,1-.56-.3l-.23-.34-.7-1a.21.21,0,0,0,0-.06.72.72,0,0,1-.15-.68l0-.16.17,0a11.3,11.3,0,0,1,1.16,0h10.7a1.42,1.42,0,0,0-.16-.33l-.11-.2a4.63,4.63,0,0,1-.44-2.11,3.06,3.06,0,0,1,1.73-2.81,5.34,5.34,0,0,1,3.79-.42,7.66,7.66,0,0,1,1.4.48A19,19,0,0,1,185.54,30c.11.09.26.22.4.36a.66.66,0,0,1,.1,1c-.14.25-.29.48-.53.52a.78.78,0,0,1-.63-.25,14.88,14.88,0,0,0-2.73-1.74,7.36,7.36,0,0,0-2.55-.8,3.72,3.72,0,0,0-1.06,0,2.27,2.27,0,0,0-2.07,2.16,6,6,0,0,0,0,.74v.26a.17.17,0,0,0,0,.07h0a.24.24,0,0,0,.12,0h29.23c.69,0,.8,0,1.12.59l.25.43q.23.36.42.72l.18.31.07.13-.08.13a.6.6,0,0,1-.63.31h-1.57s0,0,0,.07,0,.31,0,.48h0V46.1a1.55,1.55,0,0,1,0,.22c0,.06,0,.1.09.12a5.23,5.23,0,0,1,1.94,1.17l.07.06,4.12,3.44.1.07a1.17,1.17,0,0,1,.45.59l0,.13-.09.11c-.49.57-.7.8-1,.81Zm-5.5-4.13a4.4,4.4,0,0,1,3.08,1.3c.28.26.56.52.83.79l1,.91L211,52a2,2,0,0,0,.28.26,3.49,3.49,0,0,0,.49-.51,1.72,1.72,0,0,0-.23-.2l-.1-.08-4.12-3.44-.07-.06a4.67,4.67,0,0,0-1.74-1.07.62.62,0,0,1-.48-.63,1.34,1.34,0,0,0,0-.2V35.48h0c0-.17,0-.34,0-.52a.58.58,0,0,1,.58-.56h1.6l-.06-.1c-.13-.24-.27-.48-.41-.71s-.2-.33-.27-.45a1,1,0,0,0-.2-.3,1.63,1.63,0,0,0-.45,0H176.59a.65.65,0,0,1-.5-.17.6.6,0,0,1-.16-.44v-.26a7.18,7.18,0,0,1,0-.8,2.79,2.79,0,0,1,2.51-2.62,4.76,4.76,0,0,1,1.2,0,8.17,8.17,0,0,1,2.73.85,16.87,16.87,0,0,1,2.82,1.8.63.63,0,0,0,.2.14,1,1,0,0,0,.18-.26.72.72,0,0,0,.09-.19.74.74,0,0,0-.12-.13,3.08,3.08,0,0,0-.36-.34,18.41,18.41,0,0,0-4.81-3,7.2,7.2,0,0,0-1.31-.45,4.85,4.85,0,0,0-3.43.37,2.55,2.55,0,0,0-1.46,2.36,4.07,4.07,0,0,0,.39,1.88l.1.17a1.34,1.34,0,0,1,.23.88l0,.22H164.25c-.19,0-.39,0-.57,0s-.58,0-.85,0l0,0,.07.09c.22.34.46.68.69,1l.23.34a.15.15,0,0,0,.14.07h3a.61.61,0,0,1,.69.67c0,.15,0,.3,0,.44v6.58c0,.75,0,1.52,0,2.28a.48.48,0,0,0,.24.47c.63.41,1.25.83,1.72,1.15,0,0,0,0,.06,0a1,1,0,0,1,.2.15c0-.15,0-.3,0-.45v-10c0-.21,0-.43,0-.65,0-.46.23-.65.71-.65h3.21c.56,0,.73.17.76.72v9.13c0,.15,0,.31,0,.47a.28.28,0,0,0,.16.28l1.12.72c.17.12.35.23.53.34l0,0,.32.2c0-.16,0-.33,0-.49V35.71c0-.21,0-.42,0-.64,0-.48.21-.68.68-.68h3.1a.59.59,0,0,1,.64.63c0,1.18,0,2.46,0,4.12a.59.59,0,0,1-.61.67h0a2,2,0,0,0-.43,0,.43.43,0,0,0-.34.54,2,2,0,0,0,.47.88,11.38,11.38,0,0,0,2,1.82,2.76,2.76,0,0,0,.66.34.29.29,0,0,0,.44-.3c0-.19,0-.38,0-.57s0-.3,0-.46c0-.41.13-.69.67-.69h3.72c.53,0,.73.2.74.75s0,1.22,0,1.82v.55c0,.25,0,.34.14.41l1.1.73,1,.63c0-.19,0-.39,0-.59v-10c0-.2,0-.42,0-.63,0-.48.22-.68.69-.68h3.31c.53,0,.71.19.72.76v3.2c0,.34,0,.64,0,.94a.52.52,0,0,1-.49.51h-.19a1.42,1.42,0,0,0-.3,0,.49.49,0,0,0-.33.19.54.54,0,0,0,0,.41,1.82,1.82,0,0,0,.41.79,11.08,11.08,0,0,0,2.09,1.88,2.15,2.15,0,0,0,.66.33.36.36,0,0,0,.27,0,.35.35,0,0,0,.11-.26,5.91,5.91,0,0,0,0-.6c0-.14,0-.28,0-.42,0-.48.15-.74.74-.74H202c.62,0,.8.18.8.78,0,.81,0,1.61,0,2.38a.42.42,0,0,0,.23.45c.39.24.76.5,1.12.75l.1.07.05,0a.59.59,0,0,1,.33.63l0,.16-.16,0a3,3,0,0,1-1,.08,2.88,2.88,0,0,0-.78,0,5.14,5.14,0,0,0,.59,1.07c.07.12.14.24.2.36s.27.51.47.58a2,2,0,0,0,.86,0l.23,0A5.78,5.78,0,0,1,205.77,48.69Zm-10.83-9.4Zm0,0Zm-7.62.55h-2.84c-.49,0-.74,0-.92-.17s-.17-.43-.17-.89v-2h0v-.31c0-.45,0-.92,0-1.39s.19-.66.66-.69h3.61a1,1,0,0,1,.69.15.86.86,0,0,1,.18.67v.26c0,.69,0,1.41,0,2.11a5.66,5.66,0,0,0,0,.58,2.89,2.89,0,0,1-.16,1.44l-.05.12-.13,0A3.88,3.88,0,0,1,187.33,39.82Zm-.84-.53h.43a5.19,5.19,0,0,0,1.05,0,2.53,2.53,0,0,0,.07-1.07c0-.2,0-.42,0-.63,0-.69,0-1.4,0-2.08v-.27a1.37,1.37,0,0,0,0-.28,1.83,1.83,0,0,0-.33,0H184.1a.38.38,0,0,0-.16,0,1.48,1.48,0,0,0,0,.16c0,.46,0,.93,0,1.38v.83h0v1.46a3.2,3.2,0,0,0,0,.51,2.11,2.11,0,0,0,.55,0h2Zm12.65.53h-.59a.92.92,0,0,1-.71-.18,1,1,0,0,1-.16-.74c0-.62,0-1.25,0-1.87V36c0-.3,0-.61,0-.92,0-.48.21-.68.68-.69h3.5c.4,0,.64,0,.81.19s.16.41.17.84v2h0v.31c0,.45,0,.92,0,1.39s-.2.68-.67.69h-3Zm-.92-.55a1.72,1.72,0,0,0,.34,0h3.59c.09,0,.13,0,.14,0a.38.38,0,0,0,0-.16c0-.46,0-.93,0-1.38,0-.19,0-.38,0-.57V36.9h0V35.41a4.27,4.27,0,0,0,0-.48,3.59,3.59,0,0,0-.44,0h-3.48a.36.36,0,0,0-.15,0,.68.68,0,0,0,0,.17c0,.3,0,.6,0,.89v1c0,.62,0,1.25,0,1.87A2.18,2.18,0,0,0,198.22,39.27Z" transform="translate(-3.15 -3.62)"/><path class="cls-2" d="M137.15,46.58a29.06,29.06,0,0,1-2.55-1.65c-.23-.16-.2-.42-.2-.66,0-1.37,0-2.75,0-4.12,0-.28,0-.55,0-.83s-.07-.35-.29-.34a18.61,18.61,0,0,0-3,.11,2.16,2.16,0,0,0-1.72,3,5.49,5.49,0,0,0,.74,1.47c.37.53.78,1,1.16,1.57.13.18.45.34.33.58s-.54.4-.85.54a.27.27,0,0,1-.19,0,2.68,2.68,0,0,1-.3-.28c-.71-.88-1.45-1.74-2.13-2.66a8.94,8.94,0,0,1-1.52-3.13,2.44,2.44,0,0,1,1.48-3,4.45,4.45,0,0,1,2-.43h3.71c.54,0,.55,0,.57-.59V36c0-1.53.18-1.32-1.3-1.32h-9a.31.31,0,0,0-.33.32c0,.27,0,.54,0,.82v10.6c-.22.13-.36,0-.5-.08-.62-.42-1.25-.85-1.88-1.26a.62.62,0,0,1-.32-.59c0-.24,0-.49,0-.73V35.79c0-.27,0-.55,0-.82a.31.31,0,0,0-.33-.32h-3.2c-.26,0-.35.17-.35.4v.83q0,4.84,0,9.69c0,.28,0,.55,0,.83s-.17.25-.28.17l-2.23-1.47a.49.49,0,0,1-.17-.46c0-.66,0-1.31,0-2,0-.24,0-.48,0-.72a.27.27,0,0,0-.24-.28l-.21,0h-3.71c-.35,0-.43.08-.45.41s0,.82-.06,1.23a.45.45,0,0,1-.51.4,1.36,1.36,0,0,1-.76-.28,10.93,10.93,0,0,1-2.37-2.13,2,2,0,0,1-.42-.93.71.71,0,0,1,.52-.78c.26-.07.59.09.78-.14s.09-.6.09-.9c0-1.14,0-2.27,0-3.41,0-.42-.06-.48-.48-.48h-1.85a.74.74,0,0,1-.7-.34c-.34-.54-.72-1.07-1.07-1.58.13-.26.33-.16.48-.18a2.77,2.77,0,0,1,.41,0h42.7c1.4,0,1-.2,1.74,1,.2.31.36.64.58,1a8.93,8.93,0,0,1-1.61.06h-1.23c-.26,0-.37.15-.37.39,0,.93,0,1.86,0,2.79,0,.41,0,.82,0,1.23a2.9,2.9,0,0,1-1.24,2.38l-.71.53,3.88,3.89a4.06,4.06,0,0,1-.93.85c-.29,0-.42-.26-.58-.42-1.19-1.19-2.38-2.39-3.55-3.6a17.66,17.66,0,0,1-1.91-2.3,4.73,4.73,0,0,1-.55-1,.87.87,0,0,1,1-1.25,7.5,7.5,0,0,1,1.19.32c.23.05.42.25.74.14,0-1.17,0-2.37,0-3.57,0-.32-.09-.4-.45-.4h-4.95c-.33,0-.42.1-.44.43s0,.55,0,.82V46.58ZM109.83,37h0v2.16c0,.25.14.37.39.37,1.27,0,2.53,0,3.8,0,.36,0,.45-.08.45-.41V35c0-.25-.14-.37-.39-.37h-3.8c-.35,0-.44.09-.45.42C109.82,35.72,109.83,36.37,109.83,37Z" transform="translate(-3.15 -3.62)"/><path class="cls-3" d="M137.41,47l-.39-.21a20.41,20.41,0,0,1-2-1.26l-.6-.41a.82.82,0,0,1-.31-.79v-.08c0-.75,0-1.5,0-2.25V40.1c0-.25,0-.52,0-.77a.55.55,0,0,0,0-.09h-.8a11.92,11.92,0,0,0-2.15.1,2,2,0,0,0-1.42.91,2.07,2.07,0,0,0-.11,1.77,5.27,5.27,0,0,0,.71,1.4l.61.82.55.75.11.11a.61.61,0,0,1,.24.74,1.36,1.36,0,0,1-.8.59l-.18.07a.48.48,0,0,1-.45-.09,1.77,1.77,0,0,1-.34-.32l-.59-.72c-.52-.63-1.05-1.27-1.55-1.94a9.21,9.21,0,0,1-1.56-3.22A2.68,2.68,0,0,1,128,36.88a4.72,4.72,0,0,1,2.11-.46h4a2.92,2.92,0,0,0,0-.33V35.5a2.72,2.72,0,0,0,0-.58,2.59,2.59,0,0,0-.54,0h-9.43c-.08,0-.08,0-.08.07,0,.26,0,.52,0,.78V46.54l-.13.08a.62.62,0,0,1-.74-.08h0l-.78-.53-1.1-.73a.87.87,0,0,1-.44-.83V35.79c0-.26,0-.53,0-.81,0,0,0-.07-.07-.07h-3.26s0,0,0,.14V45.57c0,.32,0,.59,0,.84a.46.46,0,0,1-.25.4.44.44,0,0,1-.43,0l-1.82-1.2-.42-.28a.71.71,0,0,1-.28-.66h0c0-.39,0-.79,0-1.17v-.79c0-.21,0-.46,0-.71v0h-.93c-1,0-2,0-3,0h-.17a.36.36,0,0,0,0,.15c0,.17,0,.33,0,.49s0,.5,0,.76a.7.7,0,0,1-.77.63h0a1.63,1.63,0,0,1-.91-.32,11.52,11.52,0,0,1-2.42-2.18,2.17,2.17,0,0,1-.47-1.06,1,1,0,0,1,.7-1.07,1.1,1.1,0,0,1,.4,0c.16,0,.22,0,.25,0a.68.68,0,0,0,.05-.46,2.46,2.46,0,0,1,0-.28c0-1.08,0-2.22,0-3.4,0-.12,0-.18,0-.21h-2.06a1,1,0,0,1-.92-.46c-.24-.38-.5-.76-.75-1.12l-.32-.45-.08-.13.07-.14a.56.56,0,0,1,.61-.32h.06a1.87,1.87,0,0,1,.33,0H147.1c.73,0,.82,0,1.17.63l.29.5c.14.22.26.44.39.68l.2.37.17.32-.35.06a5.48,5.48,0,0,1-1.19.06h-1.7c-.08,0-.11,0-.11.13,0,.53,0,1.06,0,1.59V38c0,.34,0,.69,0,1a3.16,3.16,0,0,1-1.34,2.58l-.46.34h0L148,45.83l-.13.18a4.31,4.31,0,0,1-1,.92l-.08,0h-.1a1,1,0,0,1-.65-.4l-.09-.1-.48-.48c-1-1-2.05-2.07-3.07-3.12a17.73,17.73,0,0,1-1.93-2.33,4.52,4.52,0,0,1-.58-1,1.11,1.11,0,0,1,1.24-1.59,3.25,3.25,0,0,1,.83.2l.4.11a1.33,1.33,0,0,1,.24.1l.17.07v-.73c0-.85,0-1.74,0-2.61a.38.38,0,0,0,0-.13h-5.13c-.1,0-.14,0-.15,0a.39.39,0,0,0,0,.16V47Zm3.51-8.6a.64.64,0,0,0-.53.21.69.69,0,0,0,0,.69,4.13,4.13,0,0,0,.52.92,16.23,16.23,0,0,0,1.88,2.27c1,1.05,2.05,2.1,3.06,3.11l.48.49.11.11a.63.63,0,0,0,.24.21,3.48,3.48,0,0,0,.63-.56l-3.92-3.93.49-.37.46-.34a2.64,2.64,0,0,0,1.13-2.17c0-.34,0-.69,0-1V36.63c0-.53,0-1.06,0-1.59a.59.59,0,0,1,.62-.65h1.72a5.82,5.82,0,0,0,.72,0l0,0c-.13-.24-.24-.45-.37-.65s-.23-.38-.3-.52a1.35,1.35,0,0,0-.24-.35,1.43,1.43,0,0,0-.47,0H103.77a.92.92,0,0,0-.24,0h-.15l.15.22c.26.37.52.75.77,1.14a.47.47,0,0,0,.47.22h1.87c.56,0,.73.18.73.74,0,1.18,0,2.32,0,3.41a1.8,1.8,0,0,0,0,.22,1.1,1.1,0,0,1-.17.84.75.75,0,0,1-.68.23h-.22a.44.44,0,0,0-.34.49,1.67,1.67,0,0,0,.36.8,10.81,10.81,0,0,0,2.31,2.09,1.18,1.18,0,0,0,.62.23h0c.16,0,.24,0,.25-.16s0-.48,0-.72,0-.34,0-.5c0-.47.22-.66.71-.66H114l.25,0a.52.52,0,0,1,.46.52c0,.26,0,.52,0,.74s0,.53,0,.79v1.18c0,.16,0,.2.05.23l.41.27,1.71,1.13v-.71c0-2.09,0-4.19,0-6.28V35.05a.59.59,0,0,1,.61-.66h3.2a.58.58,0,0,1,.59.56c0,.29,0,.58,0,.84v8.68a.37.37,0,0,0,.2.36l1.11.74.78.52,0,0,.06,0V35.76c0-.26,0-.54,0-.81a.57.57,0,0,1,.58-.56h9.44c.47,0,.73,0,.92.17s.18.44.18,1v.57c0,.32,0,.53-.16.68s-.38.17-.67.17h-3.71a4.21,4.21,0,0,0-1.89.41,2.18,2.18,0,0,0-1.33,2.73,8.45,8.45,0,0,0,1.47,3c.49.66,1,1.3,1.53,1.92l.59.72a1.44,1.44,0,0,0,.25.23l.13-.05c.22-.09.44-.17.52-.33l-.12-.13a.82.82,0,0,1-.18-.19c-.18-.25-.36-.49-.55-.73l-.61-.84a5.87,5.87,0,0,1-.78-1.54,2.61,2.61,0,0,1,.15-2.2,2.51,2.51,0,0,1,1.78-1.15,13.1,13.1,0,0,1,2.24-.12h.79a.53.53,0,0,1,.54.59c0,.27,0,.53,0,.79V42c0,.75,0,1.5,0,2.25v.08c0,.23,0,.31.09.36l.59.41c.49.34,1,.68,1.55,1V35.07c0-.47.23-.68.69-.68h5c.37,0,.71.08.71.66,0,.87,0,1.75,0,2.61v1.15l-.18.06a.9.9,0,0,1-.73-.08l-.15-.06-.42-.13a4.56,4.56,0,0,0-.73-.18Zm-6.8.82Zm-21.66.57h-2.24a.59.59,0,0,1-.65-.63V36.45c0-.46,0-.93,0-1.39s.22-.67.71-.67h3.8a.6.6,0,0,1,.65.63v4.12c0,.47-.21.67-.71.67Zm-2.37-3.05h0v2.42c0,.08,0,.11.13.11H114a.53.53,0,0,0,.18,0,1.13,1.13,0,0,0,0-.14V35c0-.08,0-.11-.13-.11h-3.8a.41.41,0,0,0-.17,0,.49.49,0,0,0,0,.14v1.69Z" transform="translate(-3.15 -3.62)"/><path class="cls-2" d="M164.51,42c-.59,0-1.17,0-1.75,0s-.52,0-.6.51a6.84,6.84,0,0,1-.21,1c-.21.59-.57.73-1.12.44a8.17,8.17,0,0,1-1.11-.73,11.54,11.54,0,0,1-1.82-1.81c-.26-.32-.53-.68-.3-1.12s.61-.4,1-.43c.2,0,.41,0,.61,0s.45.06.54-.18a1.05,1.05,0,0,0,0-.7c-.06-.14-.21-.16-.34-.2a7.79,7.79,0,0,1-1.64-.58,6.63,6.63,0,0,1-1.55-1,2.6,2.6,0,0,1-1-2.76,2.83,2.83,0,0,1,2.24-2,4.11,4.11,0,0,1,4.92,3.26,9.92,9.92,0,0,1,.1,1.33c0,.76,0,1.51,0,2.27,0,.56,0,.59.56.6.89,0,1.79,0,2.68,0h.72c.27,0,.35.17.36.4,0,.45,0,.89,0,1.34a.35.35,0,0,1-.38.39h-2ZM160,36.11c0-.38,0-.75,0-1.13a2.83,2.83,0,0,0-.11-.7.62.62,0,0,0-.62-.43,1.54,1.54,0,0,0-1.43,1.36,2,2,0,0,0,1.12,2c1.11.49,1,.34,1-.61Z" transform="translate(-3.15 -3.62)"/><path class="cls-3" d="M161.32,44.31a1.28,1.28,0,0,1-.61-.18,7.82,7.82,0,0,1-1.15-.75,11.66,11.66,0,0,1-1.86-1.86,1.21,1.21,0,0,1-.33-1.4,1.27,1.27,0,0,1,1.16-.57h1a.81.81,0,0,0,0-.51l-.11,0h0a8.6,8.6,0,0,1-1.7-.6,6.93,6.93,0,0,1-1.6-1.05,2.85,2.85,0,0,1-1.05-3,3.08,3.08,0,0,1,2.44-2.22,4.13,4.13,0,0,1,3.34.61,4.4,4.4,0,0,1,1.89,2.86,8.62,8.62,0,0,1,.11,1.37c0,.43,0,.86,0,1.29s0,.65,0,1a1.67,1.67,0,0,0,0,.32,1.27,1.27,0,0,0,.28,0h3.4a.6.6,0,0,1,.62.66c0,.39,0,.82,0,1.34a.6.6,0,0,1-.63.65h-3.71a1.35,1.35,0,0,0-.28,0,1.81,1.81,0,0,0-.06.27l0,.2a6.48,6.48,0,0,1-.19.85,1.09,1.09,0,0,1-.59.7A.72.72,0,0,1,161.32,44.31Zm-2.51-4.25h-.24c-.38,0-.61.06-.74.29s0,.47.27.83A11.5,11.5,0,0,0,159.88,43a6.87,6.87,0,0,0,1.08.7.58.58,0,0,0,.46.1.66.66,0,0,0,.28-.4,3.52,3.52,0,0,0,.17-.76c0-.06,0-.13,0-.2.1-.58.25-.71.84-.72h3.71c.09,0,.12,0,.12-.13,0-.52,0-.94,0-1.33,0-.15,0-.15-.1-.15h-3.4a.9.9,0,0,1-.67-.17,1,1,0,0,1-.15-.69q0-.5,0-1c0-.41,0-.85,0-1.27a9.06,9.06,0,0,0-.1-1.3,3.93,3.93,0,0,0-1.68-2.51,3.6,3.6,0,0,0-2.92-.53,2.52,2.52,0,0,0-2,1.85,2.31,2.31,0,0,0,.88,2.49,6.74,6.74,0,0,0,1.49,1,7.73,7.73,0,0,0,1.59.56h.05a.59.59,0,0,1,.47.34,1.24,1.24,0,0,1,0,.89.58.58,0,0,1-.66.35h-.51Zm1-2.3a2.64,2.64,0,0,1-.91-.29,2.24,2.24,0,0,1-1.28-2.28,1.8,1.8,0,0,1,1.68-1.6.9.9,0,0,1,.89.62,3.57,3.57,0,0,1,.11.76c0,.27,0,.54,0,.81v1c0,.5,0,.79-.23.95A.5.5,0,0,1,159.8,37.76Zm-.48-3.65h0a1.28,1.28,0,0,0-1.18,1.13,1.71,1.71,0,0,0,1,1.75,3.74,3.74,0,0,0,.66.25,3.26,3.26,0,0,0,0-.49v-.64h0v-.34c0-.25,0-.52,0-.78a2.6,2.6,0,0,0-.1-.64A.37.37,0,0,0,159.32,34.11Z" transform="translate(-3.15 -3.62)"/><path class="cls-2" d="M169.76,46.54c0,.17.14.2.28.24a6.69,6.69,0,0,1,2,.89,25.07,25.07,0,0,1,4.63,4.14.85.85,0,0,1-.39.53c-.41.35-.45.35-.83-.05-.83-.87-1.65-1.75-2.49-2.61a6.64,6.64,0,0,0-1.37-1.09,2.41,2.41,0,0,0-3.35.74,1.66,1.66,0,0,0-.28,1.65.53.53,0,0,0,.82.31,7.71,7.71,0,0,0,1-.77c.28-.24.53-.52.84-.83l1.36,1.66a3.19,3.19,0,0,1-4.46.88,3.44,3.44,0,0,1-1.53-1.87,2.83,2.83,0,0,1,2-3.55,3.8,3.8,0,0,1,1.42-.17.54.54,0,0,0,.49-.08Z" transform="translate(-3.15 -3.62)"/><path class="cls-3" d="M169.24,53.05a3.45,3.45,0,0,1-2-.6,3.76,3.76,0,0,1-1.63-2,3.08,3.08,0,0,1,.25-2.38,3.14,3.14,0,0,1,1.9-1.49,4,4,0,0,1,1.52-.18h.15l-.06-.51.53.47.23.18h0a6.74,6.74,0,0,1,2,.9,25.2,25.2,0,0,1,4.68,4.18l.09.1,0,.12a1,1,0,0,1-.41.63l-.07.06c-.21.17-.39.33-.61.32s-.38-.18-.58-.39l-.8-.84c-.55-.58-1.12-1.18-1.69-1.76a6.11,6.11,0,0,0-1.3-1,2.17,2.17,0,0,0-3,.66,1.39,1.39,0,0,0-.25,1.41.42.42,0,0,0,.2.23.28.28,0,0,0,.24,0,7.89,7.89,0,0,0,.93-.74c.18-.16.36-.35.55-.54l.27-.28.21-.2,1.67,2-.11.16a3.42,3.42,0,0,1-2.2,1.48A4,4,0,0,1,169.24,53.05ZM169,46.88a3.79,3.79,0,0,0-1.06.18,2.65,2.65,0,0,0-1.59,1.24,2.59,2.59,0,0,0-.2,2A3.24,3.24,0,0,0,167.58,52a3,3,0,0,0,2.24.45,2.92,2.92,0,0,0,1.76-1.1l-1.06-1.29-.07.07c-.2.2-.38.39-.58.57a9.52,9.52,0,0,1-1,.79.8.8,0,0,1-.68.1.88.88,0,0,1-.53-.55,2,2,0,0,1,.32-1.89,2.67,2.67,0,0,1,3.69-.8,6.33,6.33,0,0,1,1.42,1.13c.57.58,1.15,1.19,1.7,1.77l.79.84a2.4,2.4,0,0,0,.24.22,2,2,0,0,0,.24-.19l.08-.07a.68.68,0,0,0,.19-.19,24,24,0,0,0-4.49-4A6.31,6.31,0,0,0,170,47a.9.9,0,0,1-.3-.13,1,1,0,0,1-.34,0h-.06Z" transform="translate(-3.15 -3.62)"/><path class="cls-2" d="M145.29,28.45l1.87-2a.25.25,0,0,1,.37,0l1.87,2a24.81,24.81,0,0,1-1.86,1.83.26.26,0,0,1-.37,0Z" transform="translate(-3.15 -3.62)"/><path class="cls-3" d="M147.37,30.6a.54.54,0,0,1-.38-.16l-1.43-1.36-.64-.62.18-.19.5-.53c.47-.51.92-1,1.38-1.46a.5.5,0,0,1,.36-.16h0a.55.55,0,0,1,.38.16c.46.48.91,1,1.38,1.47l.49.51.16.18-.16.17a22.61,22.61,0,0,1-1.7,1.69l-.17.16A.54.54,0,0,1,147.37,30.6Zm-1.72-2.16.28.26,1.42,1.37h0l.17-.16c.51-.48,1-1,1.5-1.47l-.32-.35-1.37-1.45c-.46.47-.9.94-1.37,1.44Zm1.68-1.8h0Z" transform="translate(-3.15 -3.62)"/><path class="cls-4" d="M12.62,33.49c0-.1-.09-.21-.13-.31a.4.4,0,0,0-.15-.22c-.18-.15-.33-.32-.5-.48s-.4-.32-.61-.46L11.12,32l-.44-.29-.51-.27-.58-.26a3.68,3.68,0,0,1-.66-.23l.5.17-.35-.17a18,18,0,0,0-2.56-.81,0,0,0,0,0,0,.06l.48.39a4,4,0,0,1,.71.68,1,1,0,0,1-.1-.21,1.82,1.82,0,0,0,.27.35.5.5,0,0,1,.16.26l.14.18c.13.16.26.34.38.51a1,1,0,0,0,.14.15.49.49,0,0,1,.19.33.49.49,0,0,0,0,.11.25.25,0,0,0,0,.07h0a.35.35,0,0,0,.05.08,1.29,1.29,0,0,1,.23.47l0,.06.16.36a1.25,1.25,0,0,1,.1.27c.05.13.1.26.14.4a.93.93,0,0,1,.16.51v.05c0,.17.08.34.11.52s.08.43.1.65l.09.07a.14.14,0,0,1,0,.15l-.07.12h0c0,.09,0,.17,0,.26s0,.24,0,.44h0a.3.3,0,0,1,0,.36h0c0,.08,0,.15,0,.22l.06.06c.1.07.09.08,0,.21h0s0,.08.07.09h.06a.77.77,0,0,1,.21-.19,10,10,0,0,0,2.07-3.94h0a.88.88,0,0,0,.05-.15c0-.07,0-.14,0-.21A.87.87,0,0,0,12.62,33.49Zm-2,4.48a2.4,2.4,0,0,0,.11-.23,1,1,0,0,1,.28-.46l0,0C10.91,37.4,10.74,37.71,10.57,38Zm.59-1v-.06a.15.15,0,0,1,.11-.14A1.28,1.28,0,0,0,11.16,37Zm.58-1.11h0a1.08,1.08,0,0,1,.29-.63.31.31,0,0,0,.05-.1,1.19,1.19,0,0,1,.13-.25C12.06,35.2,11.91,35.53,11.74,35.86Z" transform="translate(-3.15 -3.62)"/><path class="cls-4" d="M8,31.62c-.06-.06-.11-.13-.16-.19h0a2.62,2.62,0,0,0-.17-.21h0a1,1,0,0,1-.1-.21,1.82,1.82,0,0,0,.27.35A.5.5,0,0,1,8,31.62Z" transform="translate(-3.15 -3.62)"/><path class="cls-4" d="M8.86,32.79a.49.49,0,0,0,0,.11c-.12-.2-.24-.4-.37-.59a1,1,0,0,0,.14.15A.49.49,0,0,1,8.86,32.79Z" transform="translate(-3.15 -3.62)"/><path class="cls-4" d="M9,33.05a1.29,1.29,0,0,1,.23.47c-.09-.18-.18-.37-.28-.55A.35.35,0,0,0,9,33.05Z" transform="translate(-3.15 -3.62)"/><path class="cls-4" d="M9.41,33.94a1.25,1.25,0,0,1,.1.27Z" transform="translate(-3.15 -3.62)"/><path class="cls-4" d="M9.43,31.07l.16.06a3.68,3.68,0,0,1-.66-.23Z" transform="translate(-3.15 -3.62)"/><path class="cls-4" d="M9.81,35.12v.05c-.05-.19-.1-.38-.16-.56A.93.93,0,0,1,9.81,35.12Z" transform="translate(-3.15 -3.62)"/><path class="cls-4" d="M10,37.76h0c0-.12,0-.26,0-.38h0A.3.3,0,0,1,10,37.76Z" transform="translate(-3.15 -3.62)"/><path class="cls-4" d="M10.1,38.26h0A.9.9,0,0,1,10,38l.06.06C10.2,38.12,10.19,38.13,10.1,38.26Z" transform="translate(-3.15 -3.62)"/><path class="cls-4" d="M10.05,36.69l0-.35.09.07a.14.14,0,0,1,0,.15l-.07.12Z" transform="translate(-3.15 -3.62)"/><path class="cls-4" d="M10.44,38.15a.57.57,0,0,1-.21.19A.77.77,0,0,1,10.44,38.15Z" transform="translate(-3.15 -3.62)"/><path class="cls-4" d="M11,37.28l0,0c-.08.14-.25.45-.42.71a2.4,2.4,0,0,0,.11-.23A1,1,0,0,1,11,37.28Z" transform="translate(-3.15 -3.62)"/><path class="cls-4" d="M11.23,32,11.12,32l-.44-.29A6.49,6.49,0,0,1,11.23,32Z" transform="translate(-3.15 -3.62)"/><path class="cls-4" d="M11.27,36.77a1.28,1.28,0,0,0-.11.2v-.06A.15.15,0,0,1,11.27,36.77Z" transform="translate(-3.15 -3.62)"/><path class="cls-4" d="M12.08,35.12a1.19,1.19,0,0,1,.13-.25c-.15.33-.3.66-.47,1h0a1.08,1.08,0,0,1,.29-.63A.31.31,0,0,0,12.08,35.12Z" transform="translate(-3.15 -3.62)"/><path class="cls-4" d="M12.56,34.06c0-.07,0-.14,0-.21A1.6,1.6,0,0,1,12.56,34.06Z" transform="translate(-3.15 -3.62)"/><path class="cls-4" d="M12.62,33.49c0-.1-.09-.21-.13-.31a.4.4,0,0,0-.15-.22c-.18-.15-.33-.32-.5-.48l.33.29a1.65,1.65,0,0,1,.41.54A.58.58,0,0,1,12.62,33.49Z" transform="translate(-3.15 -3.62)"/><path class="cls-4" d="M31,33.85a1.6,1.6,0,0,0,.05.21l.05.15h0a10.22,10.22,0,0,0,2.08,3.94.57.57,0,0,0,.21.19h.05a.18.18,0,0,0,.08-.09.93.93,0,0,0,.05-.27,1.55,1.55,0,0,0,0-.22c0-.12,0-.26,0-.38s0-.38,0-.44a2.26,2.26,0,0,1,0-.26,2,2,0,0,1,0-.35c0-.22.05-.44.09-.65s.07-.35.11-.52.11-.38.17-.56.09-.27.13-.4l.11-.27.18-.42L34.7,33h0l0-.07c.11-.2.24-.4.37-.59s.24-.35.37-.51l.15-.18c0-.06.1-.13.16-.19l.16-.21a4.36,4.36,0,0,1,.71-.68l.49-.39s0-.07,0-.06a17.6,17.6,0,0,0-2.56.81l-.35.17-.16.06a8.44,8.44,0,0,0-1.09.53,6.65,6.65,0,0,0-.56.36c-.2.14-.41.3-.6.46a3.11,3.11,0,0,0-.33.29,1.52,1.52,0,0,0-.41.54.61.61,0,0,0,0,.18A1.09,1.09,0,0,0,31,33.85Z" transform="translate(-3.15 -3.62)"/><path class="cls-5" d="M14,23.72a10.85,10.85,0,0,1,2.18,1.77c.59.78-.63.67-.63.67l-.83-.06S14.18,24,14,23.72Z" transform="translate(-3.15 -3.62)"/><path class="cls-5" d="M14.76,26.1A10.32,10.32,0,0,1,14,23.72a10.85,10.85,0,0,1,2.18,1.77" transform="translate(-3.15 -3.62)"/><path class="cls-4" d="M36,50.36l-.11.08h0l0,0c-17,6.46-26.57.72-26.77-.29a1,1,0,0,1,0-.72A12.54,12.54,0,0,0,10,46.08a3.73,3.73,0,0,0-.84-2.67.71.71,0,0,1,0-.92,40.6,40.6,0,0,0,4.41-6.18,15.47,15.47,0,0,0,1.67-3.68c.82-3,.17-6.18-.85-9.1,2.28,1.5,4,3.72,5.86,5.69a2.57,2.57,0,0,0,1.72,1,2.67,2.67,0,0,0,1.74-1l3-3.15h0c.6-.78,2.53-2.64,2.53-2.64a16.78,16.78,0,0,1-.72,3,19.58,19.58,0,0,0,6.8,15.43c.29.24.71.64.63,1s-.54.65-.71.83c-.7.76-.61,2.16-.38,3.17a9.9,9.9,0,0,0,1,2.31A3.19,3.19,0,0,1,36,50.36Z" transform="translate(-3.15 -3.62)"/><path class="cls-1" d="M25.53,50.37a5.41,5.41,0,0,1-.79.42,7.85,7.85,0,0,1-4.42.37c-1.39-.22-3-.41-3.93-1.46a2.66,2.66,0,0,1-.69-1.26,5.12,5.12,0,0,1-.22-1.79,4.4,4.4,0,0,1,.31-1.85A1.49,1.49,0,0,1,17.14,44c.77.09.89.33,1.18,1s-.21,2.09.12,2.77a2.62,2.62,0,0,0,2.22,1.37,3.78,3.78,0,0,0,.83,0,.64.64,0,0,0,.28-.26A1.9,1.9,0,0,0,21,46.37a.18.18,0,0,1-.08-.15c0-.07.06-.08.1-.09a2.21,2.21,0,0,1,2.8,2.25.28.28,0,0,0,0,.15c.08.12.22.08.32,0A2.22,2.22,0,0,0,25.09,46a4.3,4.3,0,0,0-1.75-2.25,33.41,33.41,0,0,0-3.42-1.89,6.65,6.65,0,0,1-2.86-2.59,4.69,4.69,0,0,1-.47-2.71,6,6,0,0,1,4.17-4.83,4,4,0,0,1,2.65,0,4,4,0,0,1,1.86,1.64,10,10,0,0,1,.82,1.72.3.3,0,0,1-.39.38c-.72-.29-1.4-.7-2.11-1a3.86,3.86,0,0,0-2.87-.34,3.59,3.59,0,0,0-1.92,2.1,1.47,1.47,0,0,0,0,1.6,1.26,1.26,0,0,0,1.55,0,16.13,16.13,0,0,1,1.3-1c.22-.19.26-.23.27-.18a3,3,0,0,1-1,2.21,2.06,2.06,0,0,0-.42.35.42.42,0,0,0,0,.51.46.46,0,0,0,.16.11,29.32,29.32,0,0,1,3.57,1.95A8,8,0,0,1,27,44.59a4.65,4.65,0,0,1,.21,3.92A4.36,4.36,0,0,1,25.53,50.37Z" transform="translate(-3.15 -3.62)"/><path class="cls-4" d="M28.49,25.67a6.54,6.54,0,0,0-.29,1.93c.08.65-.62-.22-.62-.22l.35-1.54Z" transform="translate(-3.15 -3.62)"/><path class="cls-4" d="M21.65,28.55h0a15.27,15.27,0,0,0,0-4.45,36.7,36.7,0,0,0-.78-5.23A16.88,16.88,0,0,1,20.35,15a10.36,10.36,0,0,1,.52-3.62c.76-2.08,1.53-5.12,1.54-5.15h0s-.78,3.07-1.55,5.16a13.82,13.82,0,0,0,0,7.44,38,38,0,0,1,.79,5.23A15.12,15.12,0,0,1,21.65,28.55Z" transform="translate(-3.15 -3.62)"/><path class="cls-4" d="M20.41,16.19A2,2,0,0,0,19.82,15a1.17,1.17,0,0,0-.42-.27,10.3,10.3,0,0,1-2.89-1.41c-.91-.58-1.62-1.13-1.62-1.13v0s.71.56,1.61,1.14a10.57,10.57,0,0,0,2.89,1.41,1,1,0,0,1,.43.27,2.08,2.08,0,0,1,.59,1.22Z" transform="translate(-3.15 -3.62)"/><polygon class="cls-4" points="12.32 8.96 11.74 8.96 11.74 8.95 12.31 8.95 12.31 8.53 12.32 8.53 12.32 8.96"/><polygon class="cls-4" points="12.64 9.19 11.97 9.18 11.97 9.16 12.63 9.18 12.66 8.74 12.67 8.74 12.64 9.19"/><polygon class="cls-4" points="12.99 9.42 12.32 9.39 12.32 9.37 12.97 9.4 12.97 8.99 12.99 8.99 12.99 9.42"/><polygon class="cls-4" points="13.31 9.64 12.67 9.6 12.67 9.59 13.3 9.62 13.36 9.17 13.37 9.17 13.31 9.64"/><polygon class="cls-4" points="13.03 9.91 13.03 9.9 13.65 9.85 13.7 9.38 13.72 9.38 13.66 9.86 13.03 9.91"/><polygon class="cls-4" points="13.37 10.14 13.37 10.13 14 10.06 14.05 9.59 14.06 9.59 14.01 10.07 13.37 10.14"/><polygon class="cls-4" points="13.76 10.37 13.76 10.35 14.39 10.28 14.4 9.8 14.41 9.81 14.4 10.3 13.76 10.37"/><polygon class="cls-4" points="14.1 10.56 14.1 10.54 14.78 10.51 14.75 10.02 14.76 10.02 14.79 10.52 14.1 10.56"/><polygon class="cls-4" points="14.51 10.75 14.51 10.73 15.1 10.65 15.1 10.23 15.11 10.23 15.11 10.66 14.51 10.75"/><polygon class="cls-4" points="19.02 3.61 18.87 3.39 18.88 3.38 19.02 3.59 19.27 3.43 19.27 3.44 19.02 3.61"/><polygon class="cls-4" points="18.96 3.87 18.81 3.65 18.82 3.64 18.97 3.85 19.21 3.69 19.22 3.7 18.96 3.87"/><polygon class="cls-4" points="18.87 4.13 18.7 3.91 18.71 3.9 18.88 4.11 19.15 3.95 19.16 3.96 18.87 4.13"/><polygon class="cls-4" points="18.79 4.42 18.63 4.17 18.64 4.16 18.8 4.4 19.1 4.21 19.11 4.22 18.79 4.42"/><polygon class="cls-4" points="18.72 4.69 18.56 4.43 18.57 4.42 18.72 4.67 19.04 4.47 19.05 4.48 18.72 4.69"/><polygon class="cls-4" points="18.65 4.93 18.49 4.65 18.5 4.64 18.65 4.91 18.98 4.73 18.99 4.74 18.65 4.93"/><polygon class="cls-4" points="18.58 5.16 18.36 4.93 18.37 4.92 18.59 5.14 18.93 4.98 18.93 5 18.58 5.16"/><polygon class="cls-4" points="18.5 5.42 18.27 5.16 18.28 5.15 18.51 5.4 18.87 5.24 18.88 5.25 18.5 5.42"/><polygon class="cls-4" points="18.43 5.66 18.17 5.42 18.18 5.41 18.44 5.64 18.82 5.5 18.82 5.51 18.43 5.66"/><polygon class="cls-4" points="18.34 5.96 18.07 5.73 18.08 5.72 18.34 5.94 18.76 5.76 18.77 5.77 18.34 5.96"/><polygon class="cls-4" points="18.27 6.19 18.04 5.98 18.05 5.97 18.27 6.18 18.7 6.02 18.71 6.03 18.27 6.19"/><polygon class="cls-4" points="18.17 6.5 17.9 6.26 17.91 6.25 18.18 6.49 18.65 6.28 18.65 6.29 18.17 6.5"/><path class="cls-4" d="M20.66,17.89h0a9.5,9.5,0,0,0,1.44-.6,4.58,4.58,0,0,0,2-1.74A8.32,8.32,0,0,1,26.17,13h0a8.25,8.25,0,0,0-2.05,2.51,4.7,4.7,0,0,1-2,1.76A8.83,8.83,0,0,1,20.66,17.89Z" transform="translate(-3.15 -3.62)"/><path class="cls-4" d="M21.38,21.74a10.12,10.12,0,0,0-3-2,9.06,9.06,0,0,1-2.94-2.13h0a9.29,9.29,0,0,0,2.93,2.12,10.08,10.08,0,0,1,3,2Z" transform="translate(-3.15 -3.62)"/><polygon class="cls-4" points="22.66 9.73 22.7 9.38 22.72 9.38 22.68 9.71 23.03 9.64 23.03 9.65 22.66 9.73"/><polygon class="cls-4" points="22.45 9.93 22.5 9.57 22.51 9.58 22.47 9.91 22.82 9.83 22.83 9.85 22.45 9.93"/><polygon class="cls-4" points="22.25 10.12 22.29 9.77 22.3 9.77 22.26 10.1 22.62 10.03 22.62 10.04 22.25 10.12"/><polygon class="cls-4" points="22.07 10.34 22.09 9.96 22.1 9.96 22.08 10.32 22.41 10.22 22.41 10.23 22.07 10.34"/><polygon class="cls-4" points="21.88 10.55 21.88 10.16 21.89 10.15 21.9 10.53 22.2 10.41 22.21 10.43 21.88 10.55"/><polygon class="cls-4" points="21.71 10.76 21.68 10.45 21.69 10.45 21.73 10.74 22.02 10.65 22.03 10.66 21.71 10.76"/><polygon class="cls-4" points="21.55 10.98 21.47 10.54 21.48 10.54 21.56 10.96 21.89 10.94 21.89 10.95 21.55 10.98"/><polygon class="cls-4" points="21.77 11.2 21.42 11.17 21.26 10.74 21.28 10.73 21.43 11.16 21.77 11.19 21.77 11.2"/><polygon class="cls-4" points="21.65 11.47 21.24 11.44 21.24 11.43 21.06 10.93 21.07 10.93 21.25 11.42 21.65 11.46 21.65 11.47"/><polygon class="cls-4" points="21.59 11.74 21.1 11.69 20.85 11.12 20.86 11.12 21.11 11.67 21.59 11.73 21.59 11.74"/><polygon class="cls-4" points="21.47 11.96 20.98 11.91 20.74 11.35 20.75 11.34 20.99 11.89 21.48 11.95 21.47 11.96"/><polygon class="cls-4" points="21.36 12.18 20.87 12.13 20.62 11.57 20.64 11.56 20.88 12.12 21.36 12.17 21.36 12.18"/><polygon class="cls-4" points="21.25 12.4 20.74 12.31 20.74 12.31 20.51 11.79 20.52 11.78 20.75 12.3 21.25 12.39 21.25 12.4"/><polygon class="cls-4" points="21.13 12.63 20.57 12.5 20.4 12.01 20.41 12 20.58 12.49 21.14 12.61 21.13 12.63"/><polygon class="cls-4" points="21.02 12.85 20.46 12.62 20.45 12.62 20.28 12.23 20.3 12.22 20.47 12.61 21.02 12.83 21.02 12.85"/><polygon class="cls-4" points="20.9 13.07 20.28 12.79 20.1 12.48 20.12 12.48 20.29 12.78 20.91 13.05 20.9 13.07"/><polygon class="cls-4" points="20.67 13.22 20.05 12.98 20.05 12.98 19.93 12.6 19.94 12.6 20.06 12.97 20.67 13.21 20.67 13.22"/><polygon class="cls-4" points="20.43 13.37 19.82 13.15 19.69 12.75 19.7 12.75 19.83 13.14 20.43 13.36 20.43 13.37"/><polygon class="cls-4" points="20.19 13.52 19.58 13.31 19.45 12.9 19.47 12.9 19.59 13.3 20.19 13.51 20.19 13.52"/><polygon class="cls-4" points="19.88 13.64 19.34 13.46 19.21 13.05 19.23 13.05 19.35 13.44 19.88 13.63 19.88 13.64"/><polygon class="cls-4" points="19.61 13.78 19.1 13.59 18.98 13.21 18.99 13.2 19.11 13.58 19.62 13.77 19.61 13.78"/><polygon class="cls-4" points="19.29 13.9 18.85 13.7 18.74 13.36 18.75 13.35 18.86 13.69 19.3 13.88 19.29 13.9"/><polygon class="cls-4" points="18.96 14.01 18.61 13.85 18.5 13.51 18.51 13.51 18.62 13.84 18.97 14 18.96 14.01"/><path class="cls-4" d="M21.62,23.72h0a12.1,12.1,0,0,0,1.55-.66,5,5,0,0,0,2.14-1.81,6,6,0,0,1,1.56-1.84,7.6,7.6,0,0,1,1-.67h0a7.27,7.27,0,0,0-1,.67,6,6,0,0,0-1.56,1.84,5.08,5.08,0,0,1-2.15,1.82A10.15,10.15,0,0,1,21.62,23.72Z" transform="translate(-3.15 -3.62)"/><polygon class="cls-4" points="24.49 15.5 24.14 15.48 24.21 15.15 24.22 15.15 24.16 15.47 24.49 15.48 24.49 15.5"/><polygon class="cls-4" points="24.18 15.76 23.85 15.7 23.85 15.32 23.86 15.32 23.86 15.69 24.18 15.74 24.18 15.76"/><polygon class="cls-4" points="23.99 15.99 23.64 15.86 23.58 15.54 23.59 15.53 23.65 15.85 24 15.97 23.99 15.99"/><polygon class="cls-4" points="23.73 16.11 23.39 16.09 23.3 15.75 23.31 15.75 23.4 16.07 23.73 16.1 23.73 16.11"/><polygon class="cls-4" points="23.5 16.34 23.17 16.29 23.09 15.93 23.1 15.93 23.18 16.28 23.51 16.32 23.5 16.34"/><polygon class="cls-4" points="23.37 16.55 22.95 16.51 22.87 16.15 22.89 16.15 22.96 16.5 23.38 16.53 23.37 16.55"/><polygon class="cls-4" points="23.13 16.72 22.77 16.72 22.66 16.25 22.67 16.24 22.79 16.7 23.13 16.7 23.13 16.72"/><polygon class="cls-4" points="22.97 16.9 22.61 16.87 22.45 16.44 22.47 16.44 22.62 16.86 22.97 16.89 22.97 16.9"/><polygon class="cls-4" points="22.84 17.17 22.44 17.14 22.43 17.14 22.25 16.63 22.26 16.63 22.45 17.13 22.85 17.16 22.84 17.17"/><polygon class="cls-4" points="22.78 17.45 22.29 17.39 22.04 16.83 22.06 16.82 22.3 17.38 22.78 17.43 22.78 17.45"/><polygon class="cls-4" points="22.67 17.67 22.18 17.61 21.93 17.05 21.94 17.04 22.18 17.6 22.67 17.65 22.67 17.67"/><polygon class="cls-4" points="22.55 17.89 22.06 17.83 21.82 17.27 21.83 17.26 22.07 17.82 22.55 17.87 22.55 17.89"/><polygon class="cls-4" points="22.44 18.11 21.93 18.01 21.93 18.01 21.7 17.49 21.71 17.48 21.94 18 22.44 18.09 22.44 18.11"/><polygon class="cls-4" points="22.32 18.33 21.76 18.2 21.59 17.71 21.6 17.7 21.77 18.19 22.33 18.32 22.32 18.33"/><polygon class="cls-4" points="22.21 18.55 21.65 18.33 21.65 18.32 21.48 17.93 21.49 17.93 21.66 18.32 22.21 18.54 22.21 18.55"/><polygon class="cls-4" points="22.1 18.77 21.47 18.49 21.3 18.19 21.31 18.18 21.48 18.48 22.1 18.76 22.1 18.77"/><polygon class="cls-4" points="21.86 18.92 21.24 18.68 21.24 18.68 21.12 18.3 21.14 18.3 21.25 18.67 21.86 18.91 21.86 18.92"/><polygon class="cls-4" points="21.62 19.07 21.01 18.86 20.88 18.45 20.9 18.45 21.02 18.84 21.62 19.06 21.62 19.07"/><polygon class="cls-4" points="21.38 19.23 20.77 19.01 20.64 18.61 20.66 18.6 20.79 19 21.39 19.21 21.38 19.23"/><polygon class="cls-4" points="21.07 19.34 20.54 19.16 20.41 18.76 20.42 18.75 20.55 19.15 21.07 19.33 21.07 19.34"/><polygon class="cls-4" points="20.8 19.48 20.29 19.29 20.17 18.91 20.18 18.91 20.3 19.28 20.81 19.47 20.8 19.48"/><polygon class="cls-4" points="20.48 19.6 20.04 19.4 19.93 19.06 19.94 19.06 20.05 19.39 20.49 19.59 20.48 19.6"/><polygon class="cls-4" points="20.16 19.71 19.8 19.55 19.69 19.21 19.7 19.21 19.81 19.54 20.16 19.7 20.16 19.71"/><polygon class="cls-4" points="13.08 14.74 12.44 14.74 12.44 14.72 13.06 14.72 13.01 14.22 13.02 14.22 13.08 14.74"/><polygon class="cls-4" points="13.35 14.97 12.72 14.97 12.72 14.96 13.34 14.96 13.29 14.46 13.3 14.45 13.35 14.97"/><polygon class="cls-4" points="13.7 15.22 13.07 15.22 13.07 15.21 13.69 15.21 13.64 14.71 13.65 14.71 13.7 15.22"/><polygon class="cls-4" points="14.08 15.51 13.44 15.51 13.44 15.49 14.06 15.49 14.01 15 14.02 14.99 14.08 15.51"/><polygon class="cls-4" points="14.47 15.76 13.84 15.76 13.84 15.75 14.46 15.75 14.4 15.25 14.42 15.25 14.47 15.76"/><polygon class="cls-4" points="15.04 16.04 14.4 16.04 14.4 16.03 15.02 16.03 14.97 15.53 14.98 15.53 15.04 16.04"/><polygon class="cls-4" points="15.59 16.27 14.95 16.27 14.95 16.26 15.57 16.26 15.52 15.76 15.54 15.76 15.59 16.27"/><polygon class="cls-4" points="16.16 16.57 15.53 16.57 15.53 16.55 16.15 16.55 16.1 16.05 16.11 16.05 16.16 16.57"/><polygon class="cls-4" points="16.71 16.9 16.08 16.9 16.08 16.89 16.7 16.89 16.64 16.39 16.66 16.39 16.71 16.9"/><polygon class="cls-4" points="17.21 17.26 16.58 17.26 16.58 17.25 17.2 17.25 17.15 16.75 17.16 16.75 17.21 17.26"/><polygon class="cls-4" points="17.65 17.59 17.02 17.59 17.02 17.58 17.64 17.58 17.59 17.08 17.6 17.08 17.65 17.59"/><path class="cls-6" d="M13.78,54.73l-.37-.09-.56,2.41-.3-.07.24-1-1-.23-.05.21a.44.44,0,0,0,0,.1l0,.06,0,0h-.08a.16.16,0,0,1-.1,0l-.1-.1-.09-.13a1,1,0,0,1-.07-.15.83.83,0,0,1,0-.15.24.24,0,0,1,0-.12.16.16,0,0,1,0-.06.05.05,0,0,1,.05,0h.14l.19.05.27-1.15-.65-.15.06-.26,2.6.61Zm-1.65-.39-.27,1.14,1,.23.26-1.14Z" transform="translate(-3.15 -3.62)"/><path class="cls-6" d="M16.25,55.14l-1.39-.23a1.33,1.33,0,0,1,.1.34.91.91,0,0,1,0,.33v0h0a.55.55,0,0,1,.17,0h.15a.48.48,0,0,1,.2.07.46.46,0,0,1,.16.15.6.6,0,0,1,.09.22.69.69,0,0,1,0,.25.75.75,0,0,1-.17.36,1.11,1.11,0,0,1-.34.25l-.17-.27a.53.53,0,0,0,.15-.08.48.48,0,0,0,.11-.09.39.39,0,0,0,.08-.1.42.42,0,0,0,0-.12v-.12a.36.36,0,0,0,0-.11l-.08-.08a.43.43,0,0,0-.12,0h-.14l-.12,0-.11.06-.09.07-.09.06-.11.06-.13,0h-.17a3.5,3.5,0,0,0,.29.54,3.56,3.56,0,0,0,.4.51l-.24.19a2.48,2.48,0,0,1-.25-.3,3.53,3.53,0,0,1-.21-.32,3.58,3.58,0,0,1-.18-.32,3,3,0,0,1-.15-.32c0-.11-.08-.2-.11-.3s-.06-.17-.08-.25l.27-.09a1.17,1.17,0,0,0,.11.25.29.29,0,0,0,.18.11.26.26,0,0,0,.15,0,.28.28,0,0,0,.12-.08.57.57,0,0,0,.08-.13.44.44,0,0,0,.05-.15,1.09,1.09,0,0,0,0-.18,3.2,3.2,0,0,0-.09-.34,1.21,1.21,0,0,1-.05-.14l-.93-.16,0-.26,2.64.44Z" transform="translate(-3.15 -3.62)"/><path class="cls-6" d="M18.53,55.38l-.62-.07-.08.8-.62-.06a.63.63,0,0,0-.45.09.56.56,0,0,0-.19.39.78.78,0,0,0,0,.27.53.53,0,0,0,.11.21.67.67,0,0,0,.19.14.72.72,0,0,0,.25.07.58.58,0,0,0,.24,0v-.15a.94.94,0,0,1,0-.16.61.61,0,0,1,.07-.14.52.52,0,0,1,.11-.1.29.29,0,0,1,.16,0l.09,0a.27.27,0,0,1,.08.07.31.31,0,0,1,.05.1A.28.28,0,0,1,18,57a.32.32,0,0,1,0,.14.41.41,0,0,1-.07.11.34.34,0,0,1-.08.09l-.09.08c0,.06.05.12.07.17l.08.13.09.11.09.09-.25.21a1.19,1.19,0,0,1-.15-.18l-.1-.18-.06-.14a.62.62,0,0,0,0-.1.84.84,0,0,1-.32,0,.9.9,0,0,1-.41-.12.78.78,0,0,1-.27-.24.71.71,0,0,1-.14-.32,1,1,0,0,1,0-.35,1,1,0,0,1,.1-.33.82.82,0,0,1,.19-.22.65.65,0,0,1,.28-.12,1.17,1.17,0,0,1,.33,0l.37,0,.06-.53-1.54-.17,0-.27,2.46.27Z" transform="translate(-3.15 -3.62)"/><path class="cls-6" d="M17.89,55.08l-.27,0-.14-.33a2.58,2.58,0,0,0-.16-.33.79.79,0,0,0-.15-.19.44.44,0,0,0-.15-.1l-.15,0-.36,0,0-.29.33,0,.19,0a.48.48,0,0,1,.16.08.57.57,0,0,1,.14.13,1.4,1.4,0,0,1,.14.22l.16.32c.06.12.12.27.19.43Z" transform="translate(-3.15 -3.62)"/><path class="cls-6" d="M19.56,56.43h-.12a.76.76,0,0,1-.27-.06.62.62,0,0,1-.2-.16.72.72,0,0,1-.12-.21.69.69,0,0,1,0-.25,1.16,1.16,0,0,1,0-.18.51.51,0,0,1,.09-.16h0l-.58,0V55.1l3.07.14v.27l-.39,0L20.93,58l-.3,0,.1-2.46-.69,0h0l.08.12a.47.47,0,0,1,.06.15.85.85,0,0,1,0,.17,1,1,0,0,1,0,.17.67.67,0,0,1-.06.28,1.19,1.19,0,0,1-.13.25,1.39,1.39,0,0,1-.21.21l-.26.17h0l.19.18.2.21.18.23.15.2-.21.17-.14-.18c-.05-.08-.12-.15-.18-.23l-.22-.24-.25-.21-.14,0H19a.9.9,0,0,1-.16,0l-.13-.06a.41.41,0,0,1-.09-.1.31.31,0,0,1,0-.13.2.2,0,0,1,.09-.18.34.34,0,0,1,.23,0,.48.48,0,0,1,.2,0,.82.82,0,0,1,.2.12l.12,0a.42.42,0,0,0,.13-.07.61.61,0,0,0,.14-.1l.12-.13a.89.89,0,0,0,.08-.17.46.46,0,0,0,0-.21.5.5,0,0,0,0-.21.61.61,0,0,0-.09-.2.5.5,0,0,0-.15-.14.47.47,0,0,0-.37,0,.31.31,0,0,0-.11.08.21.21,0,0,0-.06.1.61.61,0,0,0,0,.11.59.59,0,0,0,0,.14.35.35,0,0,0,.08.13.27.27,0,0,0,.12.09.31.31,0,0,0,.17,0h.07Z" transform="translate(-3.15 -3.62)"/><path class="cls-6" d="M25.45,55.05v.27l-.38,0,.14,2.46-.3,0-.08-1.23-1.06.06a.43.43,0,0,1-.23.09h0a5,5,0,0,0,.42.5,3,3,0,0,0,.51.41l-.18.24a3.55,3.55,0,0,1-.31-.23,3.45,3.45,0,0,1-.28-.26c-.09-.09-.17-.19-.25-.28l-.22-.28c-.06-.09-.12-.18-.17-.27a1.49,1.49,0,0,1-.14-.24l.24-.15a.74.74,0,0,0,.08.13.35.35,0,0,0,.07.09l.08,0h.08a.25.25,0,0,0,.18-.11.46.46,0,0,0,0-.27.68.68,0,0,0,0-.19,1.09,1.09,0,0,0-.05-.17c0-.06-.05-.11-.07-.16l-.07-.13-.85.05,0-.27Zm-.68.31-1,.06a1.56,1.56,0,0,1,.14.33,1.3,1.3,0,0,1,.07.33v.16a.74.74,0,0,1,0,.14h0l.86-.05Z" transform="translate(-3.15 -3.62)"/><path class="cls-6" d="M24.6,54.54a.2.2,0,0,1,0-.17.16.16,0,0,1,.15-.08.14.14,0,0,1,.09,0l.08,0a.18.18,0,0,1,.05.07.32.32,0,0,1,0,.09.27.27,0,0,1-.05.18.22.22,0,0,1-.15.08h-.09l-.08,0a.13.13,0,0,1-.05-.07A.12.12,0,0,1,24.6,54.54Z" transform="translate(-3.15 -3.62)"/><path class="cls-6" d="M27.55,56.31l-1.05.12a.41.41,0,0,1-.22.1h0a5.12,5.12,0,0,0,.44.48,3.74,3.74,0,0,0,.54.39l-.17.24a2.3,2.3,0,0,1-.33-.21,3.47,3.47,0,0,1-.29-.25c-.09-.09-.18-.17-.26-.26a2.76,2.76,0,0,1-.23-.27l-.2-.26-.15-.23.24-.16a.62.62,0,0,0,.08.12l.08.08.08,0h.08a.22.22,0,0,0,.18-.12.53.53,0,0,0,0-.26,1.06,1.06,0,0,0,0-.19.87.87,0,0,0-.07-.17.71.71,0,0,0-.08-.15l-.08-.13-.84.09,0-.27,2.08-.23,0,.27-.92.1a3.18,3.18,0,0,1,.16.32,1.32,1.32,0,0,1,.08.33.43.43,0,0,1,0,.16.68.68,0,0,1,0,.14h0l.83-.09Z" transform="translate(-3.15 -3.62)"/><path class="cls-6" d="M28.11,55.25a2.35,2.35,0,0,1,0,.26.73.73,0,0,1-.07.24.63.63,0,0,1-.13.2,1.2,1.2,0,0,1-.21.17,1,1,0,0,0,.11.2.51.51,0,0,0,.3.18.55.55,0,0,0,.18,0,.61.61,0,0,0,.32-.13.89.89,0,0,0,.23-.28l-.24-1.48.68-.1,0,.26-.38.06.39,2.44-.29.05-.14-.85h0l-.1.1-.13.09-.16.08-.19.05a.7.7,0,0,1-.36,0,.62.62,0,0,1-.28-.17,1.37,1.37,0,0,1-.2-.26c-.05-.11-.09-.22-.13-.33a.74.74,0,0,0,.25-.14.47.47,0,0,0,.15-.17.44.44,0,0,0,.07-.19.61.61,0,0,0,0-.19.41.41,0,0,0-.1-.23.19.19,0,0,0-.17-.06.2.2,0,0,0-.13.08.21.21,0,0,0,0,.15v0l0,0,.05.06.09.07-.12.22a.48.48,0,0,1-.16-.07l-.1-.1-.06-.11a.44.44,0,0,1,0-.1.54.54,0,0,1,0-.18.58.58,0,0,1,.06-.17.58.58,0,0,1,.14-.13.52.52,0,0,1,.42-.07.4.4,0,0,1,.18.1A.59.59,0,0,1,28,55,1.55,1.55,0,0,1,28.11,55.25Z" transform="translate(-3.15 -3.62)"/><path class="cls-6" d="M30.25,54.56l-.38.07.5,2.42-.3.06-.49-2.42-.41.09-.06-.27,1.09-.22Z" transform="translate(-3.15 -3.62)"/><path class="cls-6" d="M32.44,54l-.37.09.59,2.4-.3.07L32,55.21l-.83.21a1.93,1.93,0,0,0,0,.2.82.82,0,0,1,0,.14.22.22,0,0,1,0,.09.18.18,0,0,1-.07,0,.43.43,0,0,1-.19,0l-.18-.11a.75.75,0,0,1-.15-.16.37.37,0,0,1-.07-.14.17.17,0,0,1,0-.1.12.12,0,0,1,.06-.06l.08-.05.11,0L32,55l-.19-.77-1.67.41L30,54.34l2.35-.58Z" transform="translate(-3.15 -3.62)"/></svg>